<svg width="72" height="61" viewBox="0 0 72 61" fill="none" xmlns="http://www.w3.org/2000/svg">
<path d="M0.16 48.384H4.016V49.856C4.368 48.768 5.14133 48.224 6.336 48.224C7.54133 48.224 8.272 48.8 8.528 49.952C8.90133 48.8 9.68533 48.224 10.88 48.224C12.448 48.224 13.232 49.1147 13.232 50.896V55.712H14.128V56H9.696V55.712H10.256V50.512C10.256 49.7013 10.1867 49.2267 10.048 49.088C9.984 49.024 9.89867 48.992 9.792 48.992C9.48267 48.992 9.21067 49.2 8.976 49.616C8.74133 50.032 8.624 50.56 8.624 51.2V55.712H9.2V56H5.088V55.712H5.648V50.512C5.648 49.7013 5.57867 49.2267 5.44 49.088C5.376 49.024 5.29067 48.992 5.184 48.992C4.88533 48.992 4.61333 49.2213 4.368 49.68C4.13333 50.128 4.016 50.6667 4.016 51.296V55.712H4.592V56H0.16V55.712H1.04V48.672H0.16V48.384ZM19.7071 48.832C19.3125 48.832 18.9658 49.088 18.6671 49.6C18.3685 50.112 18.2191 50.72 18.2191 51.424V55.712H19.3551V56H14.3631V55.712H15.2431V48.672H14.3631V48.384H18.2191V49.92C18.3578 49.376 18.6245 48.96 19.0191 48.672C19.4138 48.3733 19.8618 48.224 20.3631 48.224C20.8645 48.224 21.2698 48.368 21.5791 48.656C21.8991 48.9333 22.0591 49.3333 22.0591 49.856C22.0591 50.368 21.9418 50.7627 21.7071 51.04C21.4725 51.3173 21.1098 51.456 20.6191 51.456C20.1391 51.456 19.7818 51.296 19.5471 50.976C19.3231 50.656 19.2965 50.2133 19.4671 49.648H20.0431C20.3098 49.104 20.1978 48.832 19.7071 48.832ZM22.9398 56.16C22.4811 56.16 22.1344 56.0267 21.8997 55.76C21.6758 55.4827 21.5638 55.152 21.5638 54.768C21.5638 54.3733 21.6811 54.0427 21.9158 53.776C22.1611 53.5093 22.5024 53.376 22.9398 53.376C23.3771 53.376 23.7238 53.488 23.9798 53.712C24.2358 53.936 24.3638 54.272 24.3638 54.72C24.3638 55.168 24.2411 55.52 23.9958 55.776C23.7611 56.032 23.4091 56.16 22.9398 56.16ZM32.5931 48.512C32.1238 48.512 31.7878 48.768 31.5851 49.28C31.3825 49.792 31.2811 50.64 31.2811 51.824V52.656C31.2811 53.712 31.3985 54.4693 31.6331 54.928C31.8678 55.3867 32.2998 55.616 32.9291 55.616C33.5585 55.616 34.0598 55.4027 34.4331 54.976C34.8065 54.5493 35.0465 54.064 35.1531 53.52L35.4411 53.552C35.2385 54.4693 34.8651 55.1307 34.3211 55.536C33.7665 55.952 33.0038 56.16 32.0331 56.16C30.7958 56.16 29.8465 55.8293 29.1851 55.168C28.5238 54.496 28.1931 53.52 28.1931 52.24C28.1931 50.9493 28.5665 49.9573 29.3131 49.264C30.0705 48.5707 31.1211 48.224 32.4651 48.224C33.4145 48.224 34.1398 48.4107 34.6411 48.784C35.1425 49.1467 35.3931 49.6053 35.3931 50.16C35.3931 50.7147 35.2705 51.12 35.0251 51.376C34.7905 51.632 34.4598 51.76 34.0331 51.76C33.6171 51.76 33.2811 51.648 33.0251 51.424C32.7691 51.2 32.6411 50.8693 32.6411 50.432C32.6411 50.24 32.6678 50.048 32.7211 49.856H33.2491C33.3238 49.6427 33.3611 49.4507 33.3611 49.28C33.3611 48.768 33.1051 48.512 32.5931 48.512ZM41.0155 52.848V51.488C41.0155 50.4533 40.9568 49.7013 40.8395 49.232C40.7328 48.752 40.4768 48.512 40.0715 48.512C39.8368 48.512 39.6448 48.5813 39.4955 48.72C39.3568 48.848 39.2555 49.0667 39.1915 49.376C39.0955 49.856 39.0475 50.5867 39.0475 51.568V52.816C39.0475 53.9787 39.0795 54.6773 39.1435 54.912C39.2182 55.1467 39.2928 55.3387 39.3675 55.488C39.4848 55.744 39.7142 55.872 40.0555 55.872C40.4715 55.872 40.7435 55.632 40.8715 55.152C40.9675 54.8107 41.0155 54.0427 41.0155 52.848ZM40.0235 56.16C38.6902 56.16 37.6822 55.8187 36.9995 55.136C36.3168 54.4533 35.9755 53.4773 35.9755 52.208C35.9755 50.928 36.3382 49.9467 37.0635 49.264C37.7995 48.5707 38.8288 48.224 40.1515 48.224C41.4742 48.224 42.4608 48.544 43.1115 49.184C43.7622 49.8133 44.0875 50.7787 44.0875 52.08C44.0875 54.8 42.7328 56.16 40.0235 56.16ZM55.255 44.48C55.255 44.096 55.0523 43.904 54.647 43.904C54.2417 43.904 53.975 44.0587 53.847 44.368C53.719 44.6667 53.655 45.152 53.655 45.824V48.384H55.767V48.672H53.655V55.712H55.607V56H49.799V55.712H50.679V48.672H48.391V55.712H49.191V56H44.535V55.712H45.415V48.672H44.487V48.384H45.415V48.352C45.415 45.4507 46.6897 44 49.239 44C50.3163 44 51.063 44.3467 51.479 45.04C52.1617 44.1013 53.1697 43.632 54.503 43.632C55.4097 43.632 56.0603 43.8133 56.455 44.176C56.8497 44.528 57.047 44.9387 57.047 45.408C57.047 45.8773 56.9243 46.2293 56.679 46.464C56.4337 46.6987 56.1083 46.816 55.703 46.816C55.2977 46.816 54.983 46.7147 54.759 46.512C54.5457 46.2987 54.439 46.0587 54.439 45.792C54.439 45.5147 54.471 45.248 54.535 44.992H55.143C55.2177 44.8107 55.255 44.64 55.255 44.48ZM49.991 44.848C49.991 44.464 49.7883 44.272 49.383 44.272C48.9777 44.272 48.711 44.4267 48.583 44.736C48.455 45.0347 48.391 45.52 48.391 46.192V48.384H50.679V48.32L50.935 47.008C50.7963 47.1253 50.5723 47.184 50.263 47.184C49.9537 47.184 49.6923 47.0827 49.479 46.88C49.2763 46.6667 49.175 46.4267 49.175 46.16C49.175 45.8827 49.207 45.616 49.271 45.36H49.879C49.9537 45.1787 49.991 45.008 49.991 44.848ZM59.8211 56.16C58.4451 56.16 57.4105 55.808 56.7171 55.104C56.0345 54.3893 55.6931 53.4027 55.6931 52.144C55.6931 50.8747 56.0771 49.904 56.8451 49.232C57.6238 48.56 58.6105 48.224 59.8051 48.224C62.2265 48.224 63.3891 49.44 63.2931 51.872H58.7811V52.496C58.7811 53.5413 58.9145 54.3307 59.1811 54.864C59.4478 55.3973 59.9118 55.664 60.5731 55.664C61.8105 55.664 62.6211 55.0027 63.0051 53.68L63.2931 53.728C63.0905 54.496 62.7225 55.0933 62.1891 55.52C61.6665 55.9467 60.8771 56.16 59.8211 56.16ZM58.7971 51.552H60.4451V50.768C60.4451 49.904 60.3918 49.3173 60.2851 49.008C60.1891 48.688 59.9865 48.528 59.6771 48.528C59.3785 48.528 59.1545 48.6987 59.0051 49.04C58.8665 49.3707 58.7971 49.9467 58.7971 50.768V51.552ZM68.0711 56.16C66.6951 56.16 65.6605 55.808 64.9671 55.104C64.2845 54.3893 63.9431 53.4027 63.9431 52.144C63.9431 50.8747 64.3271 49.904 65.0951 49.232C65.8738 48.56 66.8605 48.224 68.0551 48.224C70.4765 48.224 71.6391 49.44 71.5431 51.872H67.0311V52.496C67.0311 53.5413 67.1645 54.3307 67.4311 54.864C67.6978 55.3973 68.1618 55.664 68.8231 55.664C70.0605 55.664 70.8711 55.0027 71.2551 53.68L71.5431 53.728C71.3405 54.496 70.9725 55.0933 70.4391 55.52C69.9165 55.9467 69.1271 56.16 68.0711 56.16ZM67.0471 51.552H68.6951V50.768C68.6951 49.904 68.6418 49.3173 68.5351 49.008C68.4391 48.688 68.2365 48.528 67.9271 48.528C67.6285 48.528 67.4045 48.6987 67.2551 49.04C67.1165 49.3707 67.0471 49.9467 67.0471 50.768V51.552Z" fill="#FBE9E7"/>
<path d="M31.671 8.592C31.7085 8.8215 31.5945 9.012 31.212 9.204C30.4365 8.89449 29.5978 8.77665 28.767 8.8605C27.8115 8.937 27.009 9.243 27.117 9.8925C27.267 10.542 28.1865 10.9245 29.829 10.7715C33.84 10.428 33.8025 7.7145 39.6855 7.1805C44.2695 6.7605 46.83 8.1735 47.1735 9.8925C47.4405 11.229 46.3335 12.528 43.0095 12.7965C40.068 13.0635 38.349 12.261 38.196 11.46C38.1195 11.04 38.346 10.428 39.762 10.275C39.912 10.9245 40.7175 11.6115 42.627 11.421C44.0115 11.304 45.15 10.8 45 10.05C44.85 9.2475 43.395 8.79 41.1 8.9805C36.4395 9.4005 35.2935 11.961 31.32 12.3045C28.5 12.564 26.208 11.5335 25.902 10.005C25.788 9.432 25.788 8.0955 28.767 7.827C30.2955 7.713 31.518 7.9785 31.671 8.592ZM16.7715 24.561C15.533 26.0883 14.9069 28.0216 15.015 29.985C15.0777 30.882 15.3317 31.7551 15.7599 32.5458C16.1881 33.3365 16.7805 34.0263 17.4975 34.569C18.1962 35.1307 19.0118 35.5287 19.8845 35.7338C20.7572 35.9389 21.6648 35.9458 22.5405 35.754C23.3069 35.5661 24.0588 35.3235 24.7905 35.028C23.2769 35.0257 21.8138 34.4838 20.664 33.4995C19.9615 33.0105 19.368 32.3812 18.9208 31.6514C18.4737 30.9215 18.1826 30.107 18.066 29.259C17.8977 28.4847 17.8926 27.6838 18.0512 26.9074C18.2098 26.1311 18.5285 25.3963 18.987 24.75C19.4868 24.1153 20.1102 23.5886 20.8195 23.2018C21.5288 22.8151 22.3092 22.5763 23.1135 22.5C24.8355 22.3787 26.5438 22.8802 27.927 23.913C27.5328 23.4429 27.0981 23.0082 26.628 22.614C25.8935 22.0657 25.0458 21.6884 24.1468 21.5099C23.2478 21.3313 22.3203 21.356 21.432 21.582C19.5665 21.9727 17.9087 23.0315 16.7715 24.561ZM37.2495 15.735C33.0535 15.7675 28.8652 15.3704 24.75 14.55C21.3555 13.71 19.56 12.7935 19.56 11.61C19.56 11.1135 19.7895 10.6935 20.4765 10.197C18.3375 11.037 17.1915 11.7255 17.1915 12.795C17.3055 13.98 19.2165 15.1635 23.1135 16.08C27.7139 17.1085 32.4209 17.5828 37.134 17.493C41.8459 17.5883 46.552 17.1139 51.15 16.08C55.05 15.1635 56.919 13.941 56.919 12.795C56.919 11.955 56.079 11.145 54.5505 10.545C54.7285 10.6546 54.8772 10.8057 54.9838 10.9855C55.0904 11.1653 55.1517 11.3683 55.1625 11.577C55.1625 12.762 53.4045 13.716 49.8525 14.5185C45.7074 15.3753 41.482 15.7831 37.2495 15.735ZM51.309 19.02C46.7025 20.0101 42 20.484 37.2885 20.433C32.5394 20.472 27.7999 19.9982 23.1525 19.02C19.8675 18.18 18.1095 17.262 17.499 16.308C18.1193 20.327 19.4393 24.2062 21.399 27.7695C22.812 29.9085 24.2265 31.7805 25.6395 33.8055C26.2207 34.9304 26.6572 36.1244 26.9385 37.359C27.892 38.6572 29.2731 39.5772 30.8385 39.957C32.8444 40.6795 34.9752 40.9912 37.104 40.8735H37.3335C39.5217 40.9697 41.7087 40.659 43.7835 39.957C45.2903 39.5196 46.6162 38.6086 47.565 37.359H47.679C47.9176 36.128 48.316 34.9334 48.864 33.8055C50.277 31.7805 51.6915 29.9055 53.1045 27.7695C55.0251 24.1895 56.3413 20.3169 57 16.308C56.2365 17.3775 54.4785 18.3 51.3075 19.0215L51.309 19.02Z" fill="#FBE9E7"/>
</svg>
