<svg width="48" height="48" viewBox="0 0 48 48" fill="none" xmlns="http://www.w3.org/2000/svg">
<path d="M19.671 8.59211C19.7085 8.82161 19.5945 9.01211 19.212 9.20411C18.4365 8.8946 17.5978 8.77676 16.767 8.86061C15.8115 8.93711 15.009 9.24311 15.117 9.89261C15.267 10.5421 16.1865 10.9246 17.829 10.7716C21.84 10.4281 21.8025 7.71461 27.6855 7.18061C32.2695 6.76061 34.83 8.17361 35.1735 9.89261C35.4405 11.2291 34.3335 12.5281 31.0095 12.7966C28.068 13.0636 26.349 12.2611 26.196 11.4601C26.1195 11.0401 26.346 10.4281 27.762 10.2751C27.912 10.9246 28.7175 11.6116 30.627 11.4211C32.0115 11.3041 33.15 10.8001 33 10.0501C32.85 9.24761 31.395 8.79011 29.1 8.98061C24.4395 9.40061 23.2935 11.9611 19.32 12.3046C16.5 12.5641 14.208 11.5336 13.902 10.0051C13.788 9.43211 13.788 8.09561 16.767 7.82711C18.2955 7.71311 19.518 7.97861 19.671 8.59211ZM4.7715 24.5611C3.53298 26.0884 2.90688 28.0218 3.015 29.9851C3.0777 30.8821 3.33168 31.7553 3.75987 32.5459C4.18806 33.3366 4.78054 34.0264 5.4975 34.5691C6.19616 35.1308 7.01182 35.5288 7.88452 35.7339C8.75722 35.939 9.66478 35.9459 10.5405 35.7541C11.3069 35.5662 12.0588 35.3236 12.7905 35.0281C11.2769 35.0259 9.8138 34.4839 8.664 33.4996C7.9615 33.0106 7.36796 32.3813 6.92081 31.6515C6.47366 30.9217 6.1826 30.1071 6.066 29.2591C5.89767 28.4848 5.89263 27.6839 6.05121 26.9075C6.20979 26.1312 6.5285 25.3964 6.987 24.7501C7.48679 24.1154 8.11021 23.5887 8.81951 23.2019C9.52881 22.8152 10.3092 22.5764 11.1135 22.5001C12.8355 22.3788 14.5438 22.8803 15.927 23.9131C15.5328 23.443 15.0981 23.0083 14.628 22.6141C13.8935 22.0658 13.0458 21.6885 12.1468 21.51C11.2478 21.3314 10.3203 21.3561 9.432 21.5821C7.56653 21.9728 5.90867 23.0316 4.7715 24.5611ZM25.2495 15.7351C21.0535 15.7676 16.8652 15.3705 12.75 14.5501C9.3555 13.7101 7.56 12.7936 7.56 11.6101C7.56 11.1136 7.7895 10.6936 8.4765 10.1971C6.3375 11.0371 5.1915 11.7256 5.1915 12.7951C5.3055 13.9801 7.2165 15.1636 11.1135 16.0801C15.7139 17.1086 20.4209 17.583 25.134 17.4931C29.8459 17.5884 34.552 17.114 39.15 16.0801C43.05 15.1636 44.919 13.9411 44.919 12.7951C44.919 11.9551 44.079 11.1451 42.5505 10.5451C42.7285 10.6547 42.8772 10.8059 42.9838 10.9856C43.0904 11.1654 43.1517 11.3684 43.1625 11.5771C43.1625 12.7621 41.4045 13.7161 37.8525 14.5186C33.7074 15.3754 29.482 15.7833 25.2495 15.7351ZM39.309 19.0201C34.7025 20.0102 30 20.4841 25.2885 20.4331C20.5394 20.4721 15.7999 19.9983 11.1525 19.0201C7.8675 18.1801 6.1095 17.2621 5.499 16.3081C6.11933 20.3271 7.4393 24.2063 9.399 27.7696C10.812 29.9086 12.2265 31.7806 13.6395 33.8056C14.2207 34.9305 14.6572 36.1245 14.9385 37.3591C15.892 38.6573 17.2731 39.5773 18.8385 39.9571C20.8444 40.6796 22.9752 40.9913 25.104 40.8736H25.3335C27.5217 40.9698 29.7087 40.6591 31.7835 39.9571C33.2903 39.5197 34.6162 38.6087 35.565 37.3591H35.679C35.9176 36.1281 36.316 34.9335 36.864 33.8056C38.277 31.7806 39.6915 29.9056 41.1045 27.7696C43.0251 24.1896 44.3413 20.317 45 16.3081C44.2365 17.3776 42.4785 18.3001 39.3075 19.0216L39.309 19.0201Z" fill="#FBE9E7"/>
</svg>
