<svg width="600" height="601" viewBox="0 0 600 601" fill="none" xmlns="http://www.w3.org/2000/svg">
<path d="M570.948 365.852C554.755 414.932 519.87 468.722 468.533 486.232C390.964 512.697 384.033 576.315 243.249 575.881C221.299 575.815 200.924 573.517 182.126 569.317C172.021 567.061 162.368 564.241 153.182 560.916C69.7835 530.832 24.1211 459.286 17.6051 382.834C9.01906 282.282 77.4479 231.552 122.04 201.672C166.632 171.793 217.477 60.7292 355.88 60.0692C376.982 59.978 398.119 62.0456 418.706 66.7808C465.702 77.57 514.056 103.585 543.103 143.223C545.284 146.202 547.372 149.254 549.379 152.37C588.557 213.33 593.029 298.941 570.948 365.852Z" fill="#D7A86E"/>
<path opacity="0.7" d="M570.948 365.852C554.755 414.932 519.87 468.722 468.533 486.232C390.964 512.697 384.033 576.315 243.249 575.881C221.299 575.815 200.924 573.517 182.126 569.317C172.021 567.061 162.368 564.241 153.182 560.916C69.7835 530.832 24.1211 459.286 17.6051 382.834C9.01906 282.282 77.4479 231.552 122.04 201.672C166.632 171.793 217.477 60.7292 355.88 60.0692C376.982 59.978 398.119 62.0456 418.706 66.7808C465.702 77.57 514.056 103.585 543.103 143.223C545.284 146.202 547.372 149.254 549.379 152.37C588.557 213.33 593.029 298.941 570.948 365.852Z" fill="white"/>
<path d="M329.389 108.441H25.2817V279.817H329.389V108.441Z" fill="#D7A86E" stroke="#263238" stroke-miterlimit="10"/>
<path d="M319.603 115.824H35.0679V272.433H319.603V115.824Z" fill="#263238" stroke="#263238" stroke-miterlimit="10"/>
<path d="M49.6079 155.587H94.5851" stroke="white" stroke-miterlimit="10" stroke-linecap="round" stroke-linejoin="round"/>
<path d="M49.6079 174.973H94.5851" stroke="white" stroke-miterlimit="10" stroke-linecap="round" stroke-linejoin="round"/>
<path d="M49.6079 194.359H94.5851" stroke="white" stroke-miterlimit="10" stroke-linecap="round" stroke-linejoin="round"/>
<path d="M49.6079 213.745H94.5851" stroke="white" stroke-miterlimit="10" stroke-linecap="round" stroke-linejoin="round"/>
<path d="M49.6079 233.131H94.5851" stroke="white" stroke-miterlimit="10" stroke-linecap="round" stroke-linejoin="round"/>
<path d="M49.6079 252.517H94.5851" stroke="white" stroke-miterlimit="10" stroke-linecap="round" stroke-linejoin="round"/>
<path d="M103.984 155.587H148.961" stroke="white" stroke-miterlimit="10" stroke-linecap="round" stroke-linejoin="round"/>
<path d="M103.984 174.973H148.961" stroke="white" stroke-miterlimit="10" stroke-linecap="round" stroke-linejoin="round"/>
<path d="M103.984 194.359H148.961" stroke="white" stroke-miterlimit="10" stroke-linecap="round" stroke-linejoin="round"/>
<path d="M103.984 213.745H148.961" stroke="white" stroke-miterlimit="10" stroke-linecap="round" stroke-linejoin="round"/>
<path d="M103.984 233.131H148.961" stroke="white" stroke-miterlimit="10" stroke-linecap="round" stroke-linejoin="round"/>
<path d="M103.984 252.517H148.961" stroke="white" stroke-miterlimit="10" stroke-linecap="round" stroke-linejoin="round"/>
<path d="M156.75 155.587H201.728" stroke="white" stroke-miterlimit="10" stroke-linecap="round" stroke-linejoin="round"/>
<path d="M156.75 174.973H201.728" stroke="white" stroke-miterlimit="10" stroke-linecap="round" stroke-linejoin="round"/>
<path d="M156.75 194.359H201.728" stroke="white" stroke-miterlimit="10" stroke-linecap="round" stroke-linejoin="round"/>
<path d="M156.75 213.745H201.728" stroke="white" stroke-miterlimit="10" stroke-linecap="round" stroke-linejoin="round"/>
<path d="M156.75 233.131H201.728" stroke="white" stroke-miterlimit="10" stroke-linecap="round" stroke-linejoin="round"/>
<path d="M156.75 252.517H201.728" stroke="white" stroke-miterlimit="10" stroke-linecap="round" stroke-linejoin="round"/>
<path d="M209.518 155.587H254.495" stroke="white" stroke-miterlimit="10" stroke-linecap="round" stroke-linejoin="round"/>
<path d="M209.518 174.973H254.495" stroke="white" stroke-miterlimit="10" stroke-linecap="round" stroke-linejoin="round"/>
<path d="M209.518 194.359H254.495" stroke="white" stroke-miterlimit="10" stroke-linecap="round" stroke-linejoin="round"/>
<path d="M209.518 213.745H254.495" stroke="white" stroke-miterlimit="10" stroke-linecap="round" stroke-linejoin="round"/>
<path d="M209.518 233.131H254.495" stroke="white" stroke-miterlimit="10" stroke-linecap="round" stroke-linejoin="round"/>
<path d="M209.518 252.517H254.495" stroke="white" stroke-miterlimit="10" stroke-linecap="round" stroke-linejoin="round"/>
<path d="M262.284 155.587H307.263" stroke="white" stroke-miterlimit="10" stroke-linecap="round" stroke-linejoin="round"/>
<path d="M262.284 174.973H307.263" stroke="white" stroke-miterlimit="10" stroke-linecap="round" stroke-linejoin="round"/>
<path d="M262.284 194.359H307.263" stroke="white" stroke-miterlimit="10" stroke-linecap="round" stroke-linejoin="round"/>
<path d="M262.284 213.745H307.263" stroke="white" stroke-miterlimit="10" stroke-linecap="round" stroke-linejoin="round"/>
<path d="M262.284 233.131H307.263" stroke="white" stroke-miterlimit="10" stroke-linecap="round" stroke-linejoin="round"/>
<path d="M262.284 252.517H307.263" stroke="white" stroke-miterlimit="10" stroke-linecap="round" stroke-linejoin="round"/>
<path d="M155.664 143.503C154.351 143.503 153.312 143.254 152.547 142.759C151.781 142.263 151.245 141.574 150.939 140.691C150.633 139.809 150.479 138.784 150.479 137.617V131.251C150.479 130.026 150.631 128.972 150.939 128.09C151.245 127.208 151.781 126.525 152.547 126.044C153.312 125.563 154.351 125.323 155.664 125.323C156.934 125.323 157.929 125.534 158.651 125.958C159.373 126.381 159.883 126.979 160.182 127.752C160.481 128.524 160.631 129.422 160.631 130.442V131.93H157.131V130.268C157.131 129.86 157.109 129.477 157.065 129.118C157.02 128.762 156.9 128.469 156.703 128.244C156.507 128.018 156.167 127.904 155.686 127.904C155.205 127.904 154.854 128.022 154.636 128.254C154.416 128.487 154.278 128.79 154.219 129.162C154.161 129.534 154.132 129.945 154.132 130.398V138.448C154.132 138.944 154.171 139.378 154.252 139.75C154.332 140.122 154.485 140.407 154.711 140.604C154.937 140.8 155.262 140.899 155.685 140.899C156.151 140.899 156.484 140.786 156.681 140.559C156.877 140.334 157.001 140.031 157.053 139.651C157.103 139.272 157.129 138.871 157.129 138.447V136.719H160.63V138.186C160.63 139.221 160.483 140.136 160.192 140.931C159.9 141.727 159.396 142.352 158.682 142.813C157.969 143.272 156.963 143.503 155.664 143.503Z" fill="white"/>
<path d="M166.646 143.48C165.743 143.48 164.97 143.316 164.328 142.988C163.686 142.66 163.201 142.183 162.874 141.555C162.546 140.929 162.38 140.148 162.38 139.214V134.664C162.38 133.731 162.545 132.95 162.874 132.322C163.202 131.696 163.686 131.218 164.328 130.89C164.97 130.562 165.743 130.398 166.646 130.398C167.551 130.398 168.324 130.562 168.966 130.89C169.608 131.217 170.096 131.695 170.432 132.322C170.767 132.95 170.935 133.73 170.935 134.664V139.214C170.935 140.148 170.767 140.928 170.432 141.555C170.096 142.183 169.608 142.659 168.966 142.988C168.324 143.316 167.551 143.48 166.646 143.48ZM166.669 141.249C166.945 141.249 167.158 141.172 167.303 141.02C167.449 140.868 167.544 140.655 167.587 140.385C167.63 140.115 167.653 139.806 167.653 139.455V134.445C167.653 134.08 167.632 133.767 167.587 133.504C167.543 133.242 167.448 133.03 167.303 132.87C167.156 132.709 166.945 132.628 166.669 132.628C166.392 132.628 166.18 132.709 166.034 132.87C165.888 133.03 165.79 133.242 165.739 133.504C165.688 133.767 165.662 134.08 165.662 134.445V139.455C165.662 139.806 165.688 140.115 165.739 140.385C165.791 140.655 165.889 140.866 166.034 141.02C166.18 141.172 166.391 141.249 166.669 141.249Z" fill="white"/>
<path d="M173.451 143.262V132.87H172.182V130.616H173.451V129.741C173.451 128.984 173.527 128.326 173.68 127.772C173.833 127.218 174.143 126.788 174.61 126.481C175.077 126.175 175.791 126.021 176.754 126.021C177.046 126.021 177.319 126.028 177.575 126.043C177.831 126.058 178.119 126.087 178.439 126.13V128.581C178.323 128.552 178.194 128.526 178.056 128.504C177.917 128.482 177.783 128.472 177.652 128.472C177.346 128.472 177.119 128.563 176.974 128.745C176.827 128.928 176.754 129.216 176.754 129.609V130.616H178.439V132.87H176.754V143.262H173.451ZM179.643 143.262V132.87H178.373V130.616H179.643V129.741C179.643 128.984 179.718 128.326 179.872 127.772C180.024 127.218 180.335 126.788 180.802 126.481C181.269 126.175 181.983 126.021 182.946 126.021C183.238 126.021 183.511 126.028 183.767 126.043C184.021 126.058 184.311 126.087 184.631 126.13V128.581C184.513 128.552 184.386 128.526 184.248 128.504C184.109 128.482 183.975 128.472 183.844 128.472C183.538 128.472 183.311 128.563 183.166 128.745C183.019 128.928 182.947 129.216 182.947 129.609V130.616H184.632V132.87H182.947V143.262H179.643Z" fill="white"/>
<path d="M189.99 143.48C189.056 143.48 188.276 143.308 187.649 142.966C187.021 142.623 186.547 142.12 186.227 141.457C185.906 140.793 185.746 139.994 185.746 139.06V134.816C185.746 133.854 185.906 133.047 186.227 132.398C186.547 131.75 187.03 131.253 187.67 130.91C188.312 130.567 189.085 130.396 189.99 130.396C190.952 130.396 191.732 130.572 192.331 130.922C192.929 131.272 193.37 131.782 193.655 132.453C193.939 133.125 194.081 133.941 194.081 134.904V137.113H189.005V139.563C189.005 139.928 189.044 140.227 189.125 140.461C189.205 140.694 189.318 140.858 189.464 140.953C189.61 141.048 189.792 141.096 190.012 141.096C190.217 141.096 190.394 141.048 190.548 140.953C190.702 140.858 190.814 140.708 190.888 140.504C190.961 140.3 190.997 140.03 190.997 139.695V138.492H194.06V139.542C194.06 140.824 193.71 141.802 193.01 142.473C192.308 143.145 191.302 143.48 189.99 143.48ZM189.005 135.538H190.996V134.292C190.996 133.927 190.96 133.632 190.886 133.406C190.813 133.18 190.7 133.02 190.547 132.925C190.394 132.83 190.2 132.782 189.967 132.782C189.748 132.782 189.57 132.834 189.431 132.936C189.292 133.038 189.186 133.216 189.113 133.472C189.04 133.726 189.004 134.088 189.004 134.554L189.005 135.538Z" fill="white"/>
<path d="M200.053 143.48C199.12 143.48 198.34 143.308 197.712 142.966C197.085 142.623 196.611 142.12 196.29 141.457C195.969 140.793 195.809 139.994 195.809 139.06V134.816C195.809 133.854 195.97 133.047 196.29 132.398C196.611 131.75 197.092 131.253 197.734 130.91C198.376 130.567 199.149 130.396 200.053 130.396C201.016 130.396 201.796 130.572 202.395 130.922C202.992 131.272 203.434 131.782 203.718 132.453C204.003 133.125 204.144 133.941 204.144 134.904V137.113H199.069V139.563C199.069 139.928 199.109 140.227 199.189 140.461C199.27 140.694 199.383 140.858 199.529 140.953C199.674 141.048 199.857 141.096 200.076 141.096C200.28 141.096 200.459 141.048 200.613 140.953C200.765 140.858 200.879 140.708 200.952 140.504C201.025 140.3 201.061 140.03 201.061 139.695V138.492H204.125V139.542C204.125 140.824 203.775 141.802 203.075 142.473C202.372 143.145 201.366 143.48 200.053 143.48ZM199.069 135.538H201.06V134.292C201.06 133.927 201.024 133.632 200.951 133.406C200.878 133.18 200.765 133.02 200.611 132.925C200.458 132.83 200.265 132.782 200.032 132.782C199.812 132.782 199.635 132.834 199.495 132.936C199.356 133.038 199.251 133.216 199.177 133.472C199.104 133.726 199.068 134.088 199.068 134.554V135.538H199.069Z" fill="white"/>
<path d="M222.18 137.175C215.718 142.628 210.644 134.904 218.032 132.201C224.114 129.976 230.288 134.361 235.764 136.456C242.063 138.866 249.744 141.453 256.457 139.216C261.447 137.554 262.594 131.996 257.934 129.02C253.437 126.148 245.303 131.595 250.338 135.951" stroke="white" stroke-miterlimit="10"/>
<path d="M262.173 140.848C262.173 140.848 275.231 129.422 276.047 134.727C276.864 140.032 262.173 140.848 262.173 140.848Z" fill="white"/>
<path d="M260.133 143.296C260.133 143.296 274.824 146.154 270.335 148.194C265.846 150.235 260.133 143.296 260.133 143.296Z" fill="white"/>
<path d="M134.019 137.175C140.481 142.628 145.556 134.904 138.168 132.201C132.086 129.976 125.912 134.361 120.435 136.456C114.137 138.866 106.455 141.453 99.7426 139.216C94.7518 137.554 93.6058 131.996 98.2654 129.02C102.763 126.148 110.897 131.595 105.861 135.951" stroke="white" stroke-miterlimit="10"/>
<path d="M94.0284 140.848C94.0284 140.848 80.97 129.422 80.154 134.727C79.3368 140.032 94.0284 140.848 94.0284 140.848Z" fill="white"/>
<path d="M96.0681 143.296C96.0681 143.296 81.3765 146.154 85.8657 148.194C90.3549 150.235 96.0681 143.296 96.0681 143.296Z" fill="white"/>
<path d="M395.372 204.139H366.006V238.311H395.372V204.139Z" fill="#263238" stroke="#263238" stroke-miterlimit="10"/>
<path d="M429.515 204.139H400.148V238.311H429.515V204.139Z" fill="#263238" stroke="#263238" stroke-miterlimit="10"/>
<path d="M463.657 204.139H434.291V238.311H463.657V204.139Z" fill="#263238" stroke="#263238" stroke-miterlimit="10"/>
<path d="M395.372 204.139H366.006V216.49H395.372V204.139Z" fill="#D7A86E" stroke="#263238" stroke-miterlimit="10"/>
<path d="M429.515 204.139H400.148V216.49H429.515V204.139Z" fill="white" stroke="#263238" stroke-miterlimit="10" stroke-linecap="round" stroke-linejoin="round"/>
<path d="M463.657 204.139H434.291V216.49H463.657V204.139Z" fill="#D7A86E" stroke="#263238" stroke-miterlimit="10"/>
<path d="M435.367 332.204H406V366.376H435.367V332.204Z" fill="#263238" stroke="#263238" stroke-miterlimit="10"/>
<path d="M469.509 332.204H440.143V366.376H469.509V332.204Z" fill="#263238" stroke="#263238" stroke-miterlimit="10"/>
<path d="M435.367 332.204H406V344.556H435.367V332.204Z" fill="#D7A86E" stroke="#263238" stroke-miterlimit="10"/>
<path d="M469.509 332.204H440.143V344.556H469.509V332.204Z" fill="white" stroke="#263238" stroke-miterlimit="10" stroke-linecap="round" stroke-linejoin="round"/>
<path d="M517.145 332.204H487.778V366.376H517.145V332.204Z" fill="#263238" stroke="#263238" stroke-miterlimit="10"/>
<path d="M551.287 332.204H521.921V366.376H551.287V332.204Z" fill="#263238" stroke="#263238" stroke-miterlimit="10"/>
<path d="M517.145 332.204H487.778V344.556H517.145V332.204Z" fill="#D7A86E" stroke="#263238" stroke-miterlimit="10"/>
<path d="M551.287 332.204H521.921V344.556H551.287V332.204Z" fill="#D7A86E" stroke="#263238" stroke-miterlimit="10"/>
<path d="M522.238 204.139H492.872V238.311H522.238V204.139Z" fill="#263238" stroke="#263238" stroke-miterlimit="10"/>
<path d="M556.381 204.139H527.015V238.311H556.381V204.139Z" fill="#263238" stroke="#263238" stroke-miterlimit="10"/>
<path d="M522.238 204.139H492.872V216.49H522.238V204.139Z" fill="white" stroke="#263238" stroke-miterlimit="10" stroke-linecap="round" stroke-linejoin="round"/>
<path d="M556.381 204.139H527.015V216.49H556.381V204.139Z" fill="#D7A86E" stroke="#263238" stroke-miterlimit="10"/>
<path d="M388.46 304.815V279.825H378.576V304.815L370.382 317.354V366.91H396.654V317.354L388.46 304.815Z" fill="#D7A86E" stroke="#263238" stroke-miterlimit="10"/>
<path d="M388.459 279.825H378.576V292.874H388.459V279.825Z" fill="white" stroke="#263238" stroke-miterlimit="10" stroke-linecap="round" stroke-linejoin="round"/>
<path d="M390.683 329.892H370.382V350.79H390.683V329.892Z" fill="white" stroke="#263238" stroke-miterlimit="10" stroke-linecap="round" stroke-linejoin="round"/>
<path d="M509.089 174.786V149.796H499.206V174.786L491.012 187.324V236.881H517.284V187.324L509.089 174.786Z" fill="#263238" stroke="#263238" stroke-miterlimit="10"/>
<path d="M509.089 149.796H499.206V162.844H509.089V149.796Z" fill="white" stroke="#263238" stroke-miterlimit="10" stroke-linecap="round" stroke-linejoin="round"/>
<path d="M511.313 199.862H491.012V220.76H511.313V199.862Z" fill="white" stroke="#263238" stroke-miterlimit="10" stroke-linecap="round" stroke-linejoin="round"/>
<path d="M431.788 174.786V149.796H421.904V174.786L413.71 187.324V236.881H439.982V187.324L431.788 174.786Z" fill="#D7A86E" stroke="#263238" stroke-miterlimit="10"/>
<path d="M431.787 149.796H421.904V162.844H431.787V149.796Z" fill="white" stroke="#263238" stroke-miterlimit="10" stroke-linecap="round" stroke-linejoin="round"/>
<path d="M434.011 199.862H413.71V220.76H434.011V199.862Z" fill="white" stroke="#263238" stroke-miterlimit="10" stroke-linecap="round" stroke-linejoin="round"/>
<path d="M353.321 239.599C417.6 239.3 520.877 239.3 585.583 239.599" stroke="#263238" stroke-width="4" stroke-miterlimit="10" stroke-linecap="round" stroke-linejoin="round"/>
<path d="M478.387 114.961V368.25" stroke="#263238" stroke-width="4" stroke-miterlimit="10" stroke-linecap="round" stroke-linejoin="round"/>
<path d="M585.828 111.666H352.771V368.47H585.828" stroke="#263238" stroke-width="4" stroke-miterlimit="10" stroke-linecap="round" stroke-linejoin="round"/>
<path d="M264.299 345.181H29.7119V520.562H264.299V345.181Z" fill="#737373" stroke="#263238" stroke-miterlimit="10"/>
<path d="M264.299 399.81H29.7119V407.803H264.299V399.81Z" fill="#263238" stroke="#263238" stroke-miterlimit="10"/>
<path d="M39.3324 451.827C39.3324 451.827 51.516 436.363 69.324 437.3C87.1308 438.237 90.4116 452.295 90.4116 452.295H33.708L39.3324 451.827Z" fill="white" stroke="#263238" stroke-miterlimit="10" stroke-linecap="round" stroke-linejoin="round"/>
<path d="M54.7969 453.702C54.7969 453.702 58.0777 437.3 69.3241 437.3" stroke="#263238" stroke-miterlimit="10" stroke-linecap="round" stroke-linejoin="round"/>
<path d="M72.1343 452.764C72.1343 452.764 73.5407 440.112 83.3807 441.986" stroke="#263238" stroke-miterlimit="10" stroke-linecap="round" stroke-linejoin="round"/>
<path d="M120.402 451.827C120.402 451.827 132.586 436.363 150.394 437.3C168.202 438.237 171.481 452.295 171.481 452.295H114.779L120.402 451.827Z" fill="white" stroke="#263238" stroke-miterlimit="10" stroke-linecap="round" stroke-linejoin="round"/>
<path d="M135.866 453.702C135.866 453.702 139.147 437.3 150.393 437.3" stroke="#263238" stroke-miterlimit="10" stroke-linecap="round" stroke-linejoin="round"/>
<path d="M153.205 452.764C153.205 452.764 154.611 440.112 164.451 441.986" stroke="#263238" stroke-miterlimit="10" stroke-linecap="round" stroke-linejoin="round"/>
<path d="M201.473 451.827C201.473 451.827 213.656 436.363 231.464 437.3C249.272 438.237 252.552 452.295 252.552 452.295H195.85L201.473 451.827Z" fill="white" stroke="#263238" stroke-miterlimit="10" stroke-linecap="round" stroke-linejoin="round"/>
<path d="M216.937 453.702C216.937 453.702 220.218 437.3 231.464 437.3" stroke="#263238" stroke-miterlimit="10" stroke-linecap="round" stroke-linejoin="round"/>
<path d="M234.276 452.764C234.276 452.764 235.681 440.112 245.522 441.986" stroke="#263238" stroke-miterlimit="10" stroke-linecap="round" stroke-linejoin="round"/>
<path d="M264.299 452.312H29.7119V460.305H264.299V452.312Z" fill="#263238" stroke="#263238" stroke-miterlimit="10"/>
<path d="M264.299 345.181H29.7119V353.15H264.299V345.181Z" fill="#D7A86E" stroke="#263238" stroke-miterlimit="10"/>
<path d="M264.299 497.323H29.7119V520.562H264.299V497.323Z" fill="white" stroke="#263238" stroke-miterlimit="10" stroke-linecap="round" stroke-linejoin="round"/>
<path d="M74.4778 372.162H42.6118V400.279H74.4778V372.162Z" fill="white" stroke="#263238" stroke-miterlimit="10" stroke-linecap="round" stroke-linejoin="round"/>
<path d="M74.4778 372.162H42.6118V376.3H74.4778V372.162Z" fill="white" stroke="#263238" stroke-miterlimit="10" stroke-linecap="round" stroke-linejoin="round"/>
<path d="M201.003 372.162H103.063V400.279H201.003V372.162Z" fill="white" stroke="#263238" stroke-miterlimit="10" stroke-linecap="round" stroke-linejoin="round"/>
<path d="M201.003 372.162H103.063V376.3H201.003V372.162Z" fill="white" stroke="#263238" stroke-miterlimit="10" stroke-linecap="round" stroke-linejoin="round"/>
<path d="M175.23 372.162H148.519V400.279H175.23V372.162Z" fill="white" stroke="#263238" stroke-miterlimit="10" stroke-linecap="round" stroke-linejoin="round"/>
<path d="M175.23 372.162H148.519V376.3H175.23V372.162Z" fill="white" stroke="#263238" stroke-miterlimit="10" stroke-linecap="round" stroke-linejoin="round"/>
<path d="M526.827 402.426C531.6 439.7 534 480.244 538.362 517.495" stroke="#263238" stroke-miterlimit="10" stroke-linecap="round" stroke-linejoin="round"/>
<path d="M536.567 495.924L531.504 490.6" stroke="#263238" stroke-miterlimit="10" stroke-linecap="round" stroke-linejoin="round"/>
<path d="M533.174 492.34C533.174 492.34 533.331 489.771 530.985 487.676C529.574 486.416 522.146 483.291 521.441 485.907C520.674 488.752 528.277 494.341 533.174 492.34Z" fill="#D7A86E" stroke="#263238" stroke-miterlimit="10"/>
<path d="M533.174 492.34L526.103 487.934" stroke="#263238" stroke-miterlimit="10" stroke-linecap="round" stroke-linejoin="round"/>
<path d="M537.825 507.93L532.882 503.818" stroke="#263238" stroke-miterlimit="10" stroke-linecap="round" stroke-linejoin="round"/>
<path d="M534.553 505.558C534.553 505.558 534.71 502.989 532.364 500.894C530.953 499.634 523.525 496.508 522.819 499.125C522.054 501.97 529.657 507.559 534.553 505.558Z" fill="#D7A86E" stroke="#263238" stroke-miterlimit="10"/>
<path d="M534.553 505.558L527.481 501.152" stroke="#263238" stroke-miterlimit="10" stroke-linecap="round" stroke-linejoin="round"/>
<path d="M533.131 462.838L528.137 458.346" stroke="#263238" stroke-miterlimit="10" stroke-linecap="round" stroke-linejoin="round"/>
<path d="M529.808 460.086C529.808 460.086 529.966 457.516 527.62 455.421C526.208 454.161 518.78 451.035 518.075 453.652C517.308 456.498 524.911 462.086 529.808 460.086Z" fill="#D7A86E" stroke="#263238" stroke-miterlimit="10"/>
<path d="M529.808 460.086L522.735 455.679" stroke="#263238" stroke-miterlimit="10" stroke-linecap="round" stroke-linejoin="round"/>
<path d="M534.523 476.894L529.517 471.564" stroke="#263238" stroke-miterlimit="10" stroke-linecap="round" stroke-linejoin="round"/>
<path d="M531.187 473.304C531.187 473.304 531.344 470.734 528.998 468.639C527.587 467.379 520.159 464.254 519.454 466.87C518.688 469.716 526.291 475.304 531.187 473.304Z" fill="#D7A86E" stroke="#263238" stroke-miterlimit="10"/>
<path d="M531.187 473.304L524.116 468.897" stroke="#263238" stroke-miterlimit="10" stroke-linecap="round" stroke-linejoin="round"/>
<path d="M530.905 441.979L525.896 436.874" stroke="#263238" stroke-miterlimit="10" stroke-linecap="round" stroke-linejoin="round"/>
<path d="M527.567 438.614C527.567 438.614 527.724 436.045 525.378 433.95C523.967 432.69 516.539 429.564 515.833 432.181C515.067 435.026 522.671 440.614 527.567 438.614Z" fill="#D7A86E" stroke="#263238" stroke-miterlimit="10"/>
<path d="M527.567 438.614L520.495 434.208" stroke="#263238" stroke-miterlimit="10" stroke-linecap="round" stroke-linejoin="round"/>
<path d="M528.494 419.017L523.646 415.308" stroke="#263238" stroke-miterlimit="10" stroke-linecap="round" stroke-linejoin="round"/>
<path d="M525.317 417.049C525.317 417.049 525.474 414.48 523.128 412.384C521.717 411.124 514.289 408 513.583 410.616C512.817 413.461 520.421 419.048 525.317 417.049Z" fill="#D7A86E" stroke="#263238" stroke-miterlimit="10"/>
<path d="M525.317 417.049L518.245 412.641" stroke="#263238" stroke-miterlimit="10" stroke-linecap="round" stroke-linejoin="round"/>
<path d="M536.078 488.588L540.259 481.768" stroke="#263238" stroke-miterlimit="10" stroke-linecap="round" stroke-linejoin="round"/>
<path d="M538.984 483.817C538.984 483.817 538.299 481.335 540.162 478.801C541.283 477.276 547.905 472.684 549.135 475.099C550.472 477.726 544.188 484.762 538.984 483.817Z" fill="#D7A86E" stroke="#263238" stroke-miterlimit="10"/>
<path d="M538.983 483.817L543.959 479.148" stroke="#263238" stroke-miterlimit="10" stroke-linecap="round" stroke-linejoin="round"/>
<path d="M532.447 453.804L536.629 446.985" stroke="#263238" stroke-miterlimit="10" stroke-linecap="round" stroke-linejoin="round"/>
<path d="M535.353 449.034C535.353 449.034 534.669 446.552 536.532 444.019C537.652 442.494 542.834 438.674 544.064 441.09C545.401 443.714 540.558 449.979 535.353 449.034Z" fill="#D7A86E" stroke="#263238" stroke-miterlimit="10"/>
<path d="M535.353 449.034L541.721 442.947" stroke="#263238" stroke-miterlimit="10" stroke-linecap="round" stroke-linejoin="round"/>
<path d="M530.852 438.518L535.033 431.7" stroke="#263238" stroke-miterlimit="10" stroke-linecap="round" stroke-linejoin="round"/>
<path d="M533.758 433.747C533.758 433.747 533.074 431.265 534.937 428.731C536.058 427.207 542.68 422.614 543.91 425.029C545.247 427.656 538.962 434.694 533.758 433.747Z" fill="#D7A86E" stroke="#263238" stroke-miterlimit="10"/>
<path d="M533.758 433.747L540.126 427.66" stroke="#263238" stroke-miterlimit="10" stroke-linecap="round" stroke-linejoin="round"/>
<path d="M528.514 416.108L532.696 409.29" stroke="#263238" stroke-miterlimit="10" stroke-linecap="round" stroke-linejoin="round"/>
<path d="M531.42 411.338C531.42 411.338 530.736 408.856 532.598 406.322C533.719 404.797 540.342 400.206 541.572 402.62C542.909 405.246 536.624 412.284 531.42 411.338Z" fill="#D7A86E" stroke="#263238" stroke-miterlimit="10"/>
<path d="M531.42 411.338L537.787 405.252" stroke="#263238" stroke-miterlimit="10" stroke-linecap="round" stroke-linejoin="round"/>
<path d="M526.726 401.78C526.726 401.78 526.042 399.298 527.904 396.764C529.025 395.239 535.648 390.648 536.878 393.062C538.216 395.689 531.93 402.727 526.726 401.78Z" fill="#D7A86E" stroke="#263238" stroke-miterlimit="10"/>
<path d="M526.726 401.78L533.093 395.694" stroke="#263238" stroke-miterlimit="10" stroke-linecap="round" stroke-linejoin="round"/>
<path d="M527.095 402.043C527.095 402.043 524.556 402.463 522.23 400.345C520.831 399.07 516.96 392.002 519.489 391.033C522.241 389.978 528.581 396.967 527.095 402.043Z" fill="#D7A86E" stroke="#263238" stroke-miterlimit="10"/>
<path d="M527.095 402.043L521.709 395.072" stroke="#263238" stroke-miterlimit="10" stroke-linecap="round" stroke-linejoin="round"/>
<path d="M544.998 371.102C544.8 418.1 544.8 470.644 544.998 517.477" stroke="#263238" stroke-miterlimit="10" stroke-linecap="round" stroke-linejoin="round"/>
<path d="M558.82 418.431C556.8 449.3 552 486.244 549.029 517.322" stroke="#263238" stroke-miterlimit="10" stroke-linecap="round" stroke-linejoin="round"/>
<path d="M549.306 510.918L546.516 507.727" stroke="#263238" stroke-miterlimit="10" stroke-linecap="round" stroke-linejoin="round"/>
<path d="M546.516 507.727C546.516 507.727 547.199 505.245 545.335 502.712C544.213 501.188 537.588 496.6 536.359 499.015C535.023 501.642 541.313 508.676 546.516 507.727Z" fill="#D7A86E" stroke="#263238" stroke-miterlimit="10"/>
<path d="M546.516 507.727L540.504 501.958" stroke="#263238" stroke-miterlimit="10" stroke-linecap="round" stroke-linejoin="round"/>
<path d="M552.714 477.733L548.573 474.272" stroke="#263238" stroke-miterlimit="10" stroke-linecap="round" stroke-linejoin="round"/>
<path d="M549.864 475.47C549.864 475.47 550.547 472.988 548.683 470.455C547.561 468.931 540.936 464.343 539.707 466.759C538.37 469.386 544.659 476.419 549.864 475.47Z" fill="#D7A86E" stroke="#263238" stroke-miterlimit="10"/>
<path d="M549.864 475.47L543.851 469.701" stroke="#263238" stroke-miterlimit="10" stroke-linecap="round" stroke-linejoin="round"/>
<path d="M551.4 493.458L547.215 486.642" stroke="#263238" stroke-miterlimit="10" stroke-linecap="round" stroke-linejoin="round"/>
<path d="M548.492 488.689C548.492 488.689 549.175 486.207 547.311 483.674C546.189 482.15 539.564 477.562 538.337 479.978C536.999 482.604 543.288 489.638 548.492 488.689Z" fill="#D7A86E" stroke="#263238" stroke-miterlimit="10"/>
<path d="M548.492 488.689L542.479 482.92" stroke="#263238" stroke-miterlimit="10" stroke-linecap="round" stroke-linejoin="round"/>
<path d="M554.81 456.553L550.815 451.95" stroke="#263238" stroke-miterlimit="10" stroke-linecap="round" stroke-linejoin="round"/>
<path d="M552.092 453.997C552.092 453.997 552.775 451.515 550.911 448.982C549.79 447.458 543.164 442.87 541.936 445.286C540.599 447.912 546.888 454.946 552.092 453.997Z" fill="#D7A86E" stroke="#263238" stroke-miterlimit="10"/>
<path d="M552.092 453.997L546.079 448.228" stroke="#263238" stroke-miterlimit="10" stroke-linecap="round" stroke-linejoin="round"/>
<path d="M556.908 436.37L553.053 430.383" stroke="#263238" stroke-miterlimit="10" stroke-linecap="round" stroke-linejoin="round"/>
<path d="M554.329 432.429C554.329 432.429 555.012 429.948 553.147 427.414C552.026 425.89 545.4 421.303 544.172 423.717C542.836 426.345 549.126 433.378 554.329 432.429Z" fill="#D7A86E" stroke="#263238" stroke-miterlimit="10"/>
<path d="M554.329 432.429L548.317 426.662" stroke="#263238" stroke-miterlimit="10" stroke-linecap="round" stroke-linejoin="round"/>
<path d="M550.13 504.651L555.626 498.841" stroke="#263238" stroke-miterlimit="10" stroke-linecap="round" stroke-linejoin="round"/>
<path d="M553.957 500.582C553.957 500.582 553.799 498.013 556.143 495.916C557.554 494.655 564.979 491.526 565.686 494.142C566.454 496.986 558.855 502.579 553.957 500.582Z" fill="#D7A86E" stroke="#263238" stroke-miterlimit="10"/>
<path d="M553.957 500.582L561.44 495.937" stroke="#263238" stroke-miterlimit="10" stroke-linecap="round" stroke-linejoin="round"/>
<path d="M553.74 469.866L559.236 464.055" stroke="#263238" stroke-miterlimit="10" stroke-linecap="round" stroke-linejoin="round"/>
<path d="M557.565 465.796C557.565 465.796 557.406 463.227 559.752 461.131C561.163 459.87 568.588 456.74 569.295 459.356C570.063 462.2 562.464 467.793 557.565 465.796Z" fill="#D7A86E" stroke="#263238" stroke-miterlimit="10"/>
<path d="M557.565 465.796L565.05 461.151" stroke="#263238" stroke-miterlimit="10" stroke-linecap="round" stroke-linejoin="round"/>
<path d="M555.326 454.579L560.822 448.768" stroke="#263238" stroke-miterlimit="10" stroke-linecap="round" stroke-linejoin="round"/>
<path d="M559.152 450.51C559.152 450.51 558.993 447.94 561.338 445.844C562.749 444.583 570.175 441.453 570.882 444.069C571.65 446.913 564.05 452.506 559.152 450.51Z" fill="#D7A86E" stroke="#263238" stroke-miterlimit="10"/>
<path d="M559.152 450.51L566.636 445.864" stroke="#263238" stroke-miterlimit="10" stroke-linecap="round" stroke-linejoin="round"/>
<path d="M557.589 431.023L563.148 426.357" stroke="#263238" stroke-miterlimit="10" stroke-linecap="round" stroke-linejoin="round"/>
<path d="M561.478 428.098C561.478 428.098 561.319 425.529 563.664 423.433C565.075 422.172 572.501 419.042 573.208 421.658C573.976 424.503 566.376 430.095 561.478 428.098Z" fill="#D7A86E" stroke="#263238" stroke-miterlimit="10"/>
<path d="M561.478 428.098L568.962 423.453" stroke="#263238" stroke-miterlimit="10"/>
<path d="M558.852 417.78C558.852 417.78 558.693 415.21 561.038 413.114C562.448 411.853 569.875 408.723 570.582 411.339C571.35 414.183 563.75 419.776 558.852 417.78Z" fill="#D7A86E" stroke="#263238" stroke-miterlimit="10"/>
<path d="M558.852 417.78L566.336 413.134" stroke="#263238" stroke-miterlimit="10" stroke-linecap="round" stroke-linejoin="round"/>
<path d="M559.159 418.112C559.159 418.112 556.588 418 554.749 415.449C553.643 413.914 551.309 406.201 553.985 405.772C556.895 405.307 561.659 413.451 559.159 418.112Z" fill="#D7A86E" stroke="#263238" stroke-miterlimit="10"/>
<path d="M559.159 418.112L555.325 410.182" stroke="#263238" stroke-miterlimit="10" stroke-linecap="round" stroke-linejoin="round"/>
<path d="M544.797 495.714L540.248 489.637" stroke="#263238" stroke-miterlimit="10" stroke-linecap="round" stroke-linejoin="round"/>
<path d="M541.73 491.541C541.73 491.541 542.154 489.002 540.037 486.675C538.764 485.275 531.701 481.396 530.727 483.925C529.67 486.675 536.652 493.022 541.73 491.541Z" fill="#D7A86E" stroke="#263238" stroke-miterlimit="10"/>
<path d="M541.73 491.541L535.153 486.424" stroke="#263238" stroke-miterlimit="10" stroke-linecap="round" stroke-linejoin="round"/>
<path d="M544.956 466.4L540.248 462.015" stroke="#263238" stroke-miterlimit="10" stroke-linecap="round" stroke-linejoin="round"/>
<path d="M541.73 463.92C541.73 463.92 542.154 461.38 540.037 459.054C538.764 457.653 531.701 453.775 530.727 456.303C529.67 459.054 536.652 465.4 541.73 463.92Z" fill="#D7A86E" stroke="#263238" stroke-miterlimit="10"/>
<path d="M541.73 463.92L535.153 458.803" stroke="#263238" stroke-miterlimit="10" stroke-linecap="round" stroke-linejoin="round"/>
<path d="M545.114 435.933L540.248 429.586" stroke="#263238" stroke-miterlimit="10" stroke-linecap="round" stroke-linejoin="round"/>
<path d="M541.73 431.49C541.73 431.49 542.154 428.95 540.037 426.624C538.764 425.223 531.701 421.344 530.727 423.873C529.67 426.624 536.652 432.97 541.73 431.49Z" fill="#D7A86E" stroke="#263238" stroke-miterlimit="10"/>
<path d="M541.73 431.49L535.153 426.373" stroke="#263238" stroke-miterlimit="10" stroke-linecap="round" stroke-linejoin="round"/>
<path d="M544.797 412.098L540.248 407.997" stroke="#263238" stroke-miterlimit="10" stroke-linecap="round" stroke-linejoin="round"/>
<path d="M541.73 409.902C541.73 409.902 542.154 407.362 540.037 405.036C538.764 403.635 531.701 399.756 530.727 402.285C529.67 405.036 536.652 411.382 541.73 409.902Z" fill="#D7A86E" stroke="#263238" stroke-miterlimit="10"/>
<path d="M541.73 409.902L535.153 404.785" stroke="#263238" stroke-miterlimit="10" stroke-linecap="round" stroke-linejoin="round"/>
<path d="M545.059 390.499L540.342 387.039" stroke="#263238" stroke-miterlimit="10" stroke-linecap="round" stroke-linejoin="round"/>
<path d="M541.73 388.219C541.73 388.219 542.154 385.68 540.037 383.353C538.764 381.952 531.701 378.073 530.727 380.602C529.67 383.353 536.652 389.7 541.73 388.219Z" fill="#D7A86E" stroke="#263238" stroke-miterlimit="10"/>
<path d="M541.73 388.219L535.153 383.102" stroke="#263238" stroke-miterlimit="10" stroke-linecap="round" stroke-linejoin="round"/>
<path d="M545.951 503.054L549.873 498.072" stroke="#263238" stroke-miterlimit="10" stroke-linecap="round" stroke-linejoin="round"/>
<path d="M548.393 499.976C548.393 499.976 547.969 497.437 550.085 495.11C551.358 493.71 558.421 489.83 559.394 492.36C560.453 495.11 553.47 501.457 548.393 499.976Z" fill="#D7A86E" stroke="#263238" stroke-miterlimit="10"/>
<path d="M548.393 499.976L555.357 494.583" stroke="#263238" stroke-miterlimit="10" stroke-linecap="round" stroke-linejoin="round"/>
<path d="M545.007 460.488L549.873 454.141" stroke="#263238" stroke-miterlimit="10" stroke-linecap="round" stroke-linejoin="round"/>
<path d="M548.393 456.045C548.393 456.045 547.969 453.506 550.085 451.179C551.358 449.779 558.421 445.9 559.394 448.429C560.453 451.179 553.47 457.526 548.393 456.045Z" fill="#D7A86E" stroke="#263238" stroke-miterlimit="10"/>
<path d="M548.393 456.045L555.357 450.652" stroke="#263238" stroke-miterlimit="10" stroke-linecap="round" stroke-linejoin="round"/>
<path d="M545.007 438.805L549.873 432.458" stroke="#263238" stroke-miterlimit="10" stroke-linecap="round" stroke-linejoin="round"/>
<path d="M548.393 434.362C548.393 434.362 547.969 431.823 550.085 429.496C551.358 428.096 558.421 424.216 559.394 426.746C560.453 429.496 553.47 435.843 548.393 434.362Z" fill="#D7A86E" stroke="#263238" stroke-miterlimit="10"/>
<path d="M548.393 434.362L555.357 428.97" stroke="#263238" stroke-miterlimit="10" stroke-linecap="round" stroke-linejoin="round"/>
<path d="M545.007 410.146L549.873 403.8" stroke="#263238" stroke-miterlimit="10" stroke-linecap="round" stroke-linejoin="round"/>
<path d="M548.393 405.703C548.393 405.703 547.969 403.164 550.085 400.837C551.358 399.436 558.421 395.557 559.394 398.086C560.453 400.838 553.47 407.185 548.393 405.703Z" fill="#D7A86E" stroke="#263238" stroke-miterlimit="10"/>
<path d="M548.393 405.703L555.357 400.311" stroke="#263238" stroke-miterlimit="10" stroke-linecap="round" stroke-linejoin="round"/>
<path d="M545.217 385.413L549.987 381.691" stroke="#263238" stroke-miterlimit="10" stroke-linecap="round" stroke-linejoin="round"/>
<path d="M548.393 383.173C548.393 383.173 547.969 380.634 550.085 378.307C551.358 376.906 558.421 373.027 559.394 375.556C560.453 378.307 553.47 384.654 548.393 383.173Z" fill="#D7A86E" stroke="#263238" stroke-miterlimit="10"/>
<path d="M548.393 383.173L555.357 377.78" stroke="#263238" stroke-miterlimit="10" stroke-linecap="round" stroke-linejoin="round"/>
<path d="M544.716 373.179C544.716 373.179 544.292 370.64 546.409 368.313C547.681 366.913 554.745 363.034 555.717 365.563C556.776 368.313 549.793 374.661 544.716 373.179Z" fill="#D7A86E" stroke="#263238" stroke-miterlimit="10"/>
<path d="M544.716 373.179L551.681 367.788" stroke="#263238" stroke-miterlimit="10" stroke-linecap="round" stroke-linejoin="round"/>
<path d="M545.055 373.479C545.055 373.479 542.486 373.634 540.393 371.286C539.134 369.873 536.017 362.442 538.634 361.74C541.48 360.975 547.06 368.584 545.055 373.479Z" fill="#D7A86E" stroke="#263238" stroke-miterlimit="10"/>
<path d="M545.055 373.479L540.423 365.986" stroke="#263238" stroke-miterlimit="10" stroke-linecap="round" stroke-linejoin="round"/>
<path d="M552.83 520.13L552.991 516.894H533.533L533.692 520.13H552.83Z" fill="#263238" stroke="#263238" stroke-miterlimit="10"/>
<path d="M471.439 519.236H446.587L450.315 474.05H467.711L471.439 519.236Z" fill="white" stroke="#263238" stroke-miterlimit="10"/>
<path d="M471.671 520.539H446.547C445.943 520.539 445.455 520.05 445.455 519.447C445.455 518.844 445.944 518.355 446.547 518.355H471.671C472.275 518.355 472.763 518.845 472.763 519.447C472.763 520.05 472.275 520.539 471.671 520.539Z" fill="white" stroke="#263238" stroke-miterlimit="10"/>
<path d="M471.439 515.464H446.587L450.315 470.278H467.711L471.439 515.464Z" fill="white" stroke="#263238" stroke-miterlimit="10"/>
<path d="M471.671 516.768H446.547C445.943 516.768 445.455 516.278 445.455 515.676C445.455 515.072 445.944 514.584 446.547 514.584H471.671C472.275 514.584 472.763 515.073 472.763 515.676C472.763 516.278 472.275 516.768 471.671 516.768Z" fill="white" stroke="#263238" stroke-miterlimit="10"/>
<path d="M471.439 511.693H446.587L450.315 466.507H467.711L471.439 511.693Z" fill="white" stroke="#263238" stroke-miterlimit="10"/>
<path d="M471.671 512.996H446.547C445.943 512.996 445.455 512.506 445.455 511.904C445.455 511.3 445.944 510.812 446.547 510.812H471.671C472.275 510.812 472.763 511.302 472.763 511.904C472.763 512.506 472.275 512.996 471.671 512.996Z" fill="white" stroke="#263238" stroke-miterlimit="10"/>
<path d="M471.439 507.92H446.587L450.315 462.735H467.711L471.439 507.92Z" fill="white" stroke="#263238" stroke-miterlimit="10"/>
<path d="M471.671 509.223H446.547C445.943 509.223 445.455 508.734 445.455 508.131C445.455 507.528 445.944 507.039 446.547 507.039H471.671C472.275 507.039 472.763 507.529 472.763 508.131C472.763 508.735 472.275 509.223 471.671 509.223Z" fill="white" stroke="#263238" stroke-miterlimit="10"/>
<path d="M471.439 504.148H446.587L450.315 458.962H467.711L471.439 504.148Z" fill="white" stroke="#263238" stroke-miterlimit="10"/>
<path d="M471.671 505.452H446.547C445.943 505.452 445.455 504.962 445.455 504.36C445.455 503.756 445.944 503.268 446.547 503.268H471.671C472.275 503.268 472.763 503.757 472.763 504.36C472.763 504.963 472.275 505.452 471.671 505.452Z" fill="white" stroke="#263238" stroke-miterlimit="10"/>
<path d="M471.439 500.377H446.587L450.315 455.191H467.711L471.439 500.377Z" fill="white" stroke="#263238" stroke-miterlimit="10"/>
<path d="M471.671 501.68H446.547C445.943 501.68 445.455 501.19 445.455 500.588C445.455 499.984 445.944 499.496 446.547 499.496H471.671C472.275 499.496 472.763 499.986 472.763 500.588C472.763 501.19 472.275 501.68 471.671 501.68Z" fill="white" stroke="#263238" stroke-miterlimit="10"/>
<path d="M471.439 496.605H446.587L450.315 451.419H467.711L471.439 496.605Z" fill="white" stroke="#263238" stroke-miterlimit="10"/>
<path d="M471.671 497.908H446.547C445.943 497.908 445.455 497.419 445.455 496.816C445.455 496.213 445.944 495.724 446.547 495.724H471.671C472.275 495.724 472.763 496.214 472.763 496.816C472.763 497.419 472.275 497.908 471.671 497.908Z" fill="white" stroke="#263238" stroke-miterlimit="10"/>
<path d="M471.439 492.834H446.587L450.315 447.648H467.711L471.439 492.834Z" fill="white" stroke="#263238" stroke-miterlimit="10"/>
<path d="M471.671 494.137H446.547C445.943 494.137 445.455 493.647 445.455 493.045C445.455 492.441 445.944 491.953 446.547 491.953H471.671C472.275 491.953 472.763 492.442 472.763 493.045C472.763 493.647 472.275 494.137 471.671 494.137Z" fill="white" stroke="#263238" stroke-miterlimit="10"/>
<path d="M471.439 489.061H446.587L450.315 443.876H467.711L471.439 489.061Z" fill="white" stroke="#263238" stroke-miterlimit="10"/>
<path d="M471.671 490.364H446.547C445.943 490.364 445.455 489.874 445.455 489.272C445.455 488.668 445.944 488.18 446.547 488.18H471.671C472.275 488.18 472.763 488.67 472.763 489.272C472.763 489.876 472.275 490.364 471.671 490.364Z" fill="white" stroke="#263238" stroke-miterlimit="10"/>
<path d="M471.439 485.289H446.587L450.315 440.103H467.711L471.439 485.289Z" fill="white" stroke="#263238" stroke-miterlimit="10"/>
<path d="M471.671 486.592H446.547C445.943 486.592 445.455 486.103 445.455 485.5C445.455 484.897 445.944 484.408 446.547 484.408H471.671C472.275 484.408 472.763 484.898 472.763 485.5C472.763 486.104 472.275 486.592 471.671 486.592Z" fill="white" stroke="#263238" stroke-miterlimit="10"/>
<path d="M471.439 481.518H446.587L450.315 436.332H467.711L471.439 481.518Z" fill="white" stroke="#263238" stroke-miterlimit="10"/>
<path d="M471.671 482.821H446.547C445.943 482.821 445.455 482.331 445.455 481.729C445.455 481.125 445.944 480.637 446.547 480.637H471.671C472.275 480.637 472.763 481.126 472.763 481.729C472.763 482.332 472.275 482.821 471.671 482.821Z" fill="white" stroke="#263238" stroke-miterlimit="10"/>
<path d="M471.439 477.746H446.587L450.315 432.56H467.711L471.439 477.746Z" fill="white" stroke="#263238" stroke-miterlimit="10"/>
<path d="M471.671 479.049H446.547C445.943 479.049 445.455 478.56 445.455 477.957C445.455 477.354 445.944 476.865 446.547 476.865H471.671C472.275 476.865 472.763 477.355 472.763 477.957C472.763 478.56 472.275 479.049 471.671 479.049Z" fill="white" stroke="#263238" stroke-miterlimit="10"/>
<path d="M471.439 473.974H446.587L450.315 428.788H467.711L471.439 473.974Z" fill="white" stroke="#263238" stroke-miterlimit="10"/>
<path d="M471.671 475.278H446.547C445.943 475.278 445.455 474.788 445.455 474.186C445.455 473.582 445.944 473.094 446.547 473.094H471.671C472.275 473.094 472.763 473.583 472.763 474.186C472.763 474.788 472.275 475.278 471.671 475.278Z" fill="white" stroke="#263238" stroke-miterlimit="10"/>
<path d="M471.439 470.203H446.587L450.315 425.017H467.711L471.439 470.203Z" fill="white" stroke="#263238" stroke-miterlimit="10"/>
<path d="M471.671 471.506H446.547C445.943 471.506 445.455 471.016 445.455 470.414C445.455 469.81 445.944 469.322 446.547 469.322H471.671C472.275 469.322 472.763 469.812 472.763 470.414C472.763 471.016 472.275 471.506 471.671 471.506Z" fill="white" stroke="#263238" stroke-miterlimit="10"/>
<path d="M433.883 491.898C431.9 490.113 428.39 492.079 427.449 492.662L426.628 486.865H397.871L394.016 514.11C393.521 517.611 396.239 520.741 399.775 520.741H424.725C428.261 520.741 430.979 517.611 430.483 514.11L430.098 511.39C431.295 511.077 435.178 509.727 435.955 505.256C436.877 499.959 436.186 493.971 433.883 491.898ZM433.422 502.033C432.961 505.027 429.737 505.948 429.737 505.948L428.03 496.773C429.072 496.282 430.376 495.813 431.58 495.813C434.112 495.813 433.883 499.038 433.422 502.033Z" fill="#D7A86E" stroke="#263238" stroke-miterlimit="10"/>
<path d="M479.956 482.674L483.778 520.539H503.584L507.289 482.972L479.956 482.674Z" fill="#D7A86E" stroke="#263238" stroke-miterlimit="10"/>
<path d="M505.076 505.401L506.496 491.011H480.797L482.25 505.401H505.076Z" fill="white" stroke="#263238" stroke-miterlimit="10"/>
<path d="M508.505 480.002H478.739V483.715H508.505V480.002Z" fill="white" stroke="#263238" stroke-miterlimit="10" stroke-linecap="round" stroke-linejoin="round"/>
<path d="M506.478 475.399H480.766V480.002H506.478V475.399Z" fill="white" stroke="#263238" stroke-miterlimit="10" stroke-linecap="round" stroke-linejoin="round"/>
<path d="M71.3099 336.049C65.7983 335.985 58.3403 335.985 58.3403 335.985" stroke="#263238" stroke-width="6" stroke-miterlimit="10"/>
<path d="M90.2929 341.751C90.2929 341.751 77.8009 336.465 77.0797 336.225C76.8229 336.14 74.3653 336.085 71.3101 336.049" stroke="#263238" stroke-width="2" stroke-miterlimit="10"/>
<path d="M65.3041 340.374C59.7925 340.31 52.3345 340.31 52.3345 340.31" stroke="#263238" stroke-width="6" stroke-miterlimit="10"/>
<path d="M84.287 346.075C84.287 346.075 71.795 340.79 71.0738 340.549C70.817 340.464 68.3594 340.408 65.3042 340.372" stroke="#263238" stroke-width="2" stroke-miterlimit="10"/>
<path d="M99.8482 235.375H51.229V249.961L65.4406 299.328L89.0026 323.637H99.8482H106.206L129.767 299.328L143.978 249.961V235.375H99.8482Z" fill="#B8B8B8" stroke="#263238" stroke-miterlimit="10"/>
<path d="M139.12 240.336V248.683L124.956 296.487L104.215 319.756" stroke="white" stroke-miterlimit="10"/>
<path d="M144.913 233.131H50.2944V238.741H144.913V233.131Z" fill="#7D7D7D" stroke="#263238" stroke-miterlimit="10"/>
<path d="M54.3145 250.708H140.706" stroke="#263238" stroke-miterlimit="10"/>
<path d="M112.283 299.702H123.877" stroke="#263238" stroke-miterlimit="10"/>
<path d="M70.397 299.702H107.047" stroke="#263238" stroke-miterlimit="10"/>
<path d="M111.442 323.263H83.7661V329.995H111.442V323.263Z" fill="white" stroke="#263238" stroke-miterlimit="10"/>
<path d="M114.433 329.62H80.7744V345.702H114.433V329.62Z" fill="#263238" stroke="#263238" stroke-miterlimit="10"/>
<path d="M127.909 346.076H67.7352L49.8708 449.672L47.52 520.356H148.124L145.774 449.672L127.909 346.076Z" fill="#263238" stroke="#263238" stroke-miterlimit="10"/>
<path d="M133.262 377.118L127.909 346.076H67.735L62.3818 377.118H133.262Z" fill="white" stroke="#263238" stroke-miterlimit="10"/>
<path d="M299.645 130.49H216.182C212.496 130.49 209.508 133.286 209.508 136.734V173.958C209.508 177.406 212.496 180.201 216.182 180.201H257.244L272.678 199.22L270.863 180.201H299.643C303.33 180.201 306.318 177.405 306.318 173.958V136.734C306.319 133.286 303.331 130.49 299.645 130.49Z" fill="white" stroke="#263238" stroke-miterlimit="10" stroke-linecap="round" stroke-linejoin="round"/>
<path d="M243.096 154.356C243.096 151.61 240.87 149.384 238.124 149.384C235.379 149.384 233.153 151.61 233.153 154.356C233.153 157.101 235.379 159.327 238.124 159.327C240.87 159.327 243.096 157.101 243.096 154.356Z" fill="#D7A86E"/>
<path d="M262.487 154.356C262.487 151.61 260.261 149.384 257.515 149.384C254.769 149.384 252.543 151.61 252.543 154.356C252.543 157.101 254.769 159.327 257.515 159.327C260.261 159.327 262.487 157.101 262.487 154.356Z" fill="#D7A86E"/>
<path d="M277.704 159.327C280.45 159.327 282.676 157.101 282.676 154.356C282.676 151.61 280.45 149.384 277.704 149.384C274.958 149.384 272.732 151.61 272.732 154.356C272.732 157.101 274.958 159.327 277.704 159.327Z" fill="#D7A86E"/>
<path d="M245.677 305.682C245.677 305.682 236.263 308.974 228.424 323.4C220.584 337.825 220.27 379.22 220.27 379.22C220.27 379.22 215.253 385.806 216.507 389.569C217.761 393.332 219.329 396.468 219.329 396.468C219.329 396.468 214.625 403.053 214.625 407.757C214.625 412.461 215.879 416.538 215.879 418.734C215.879 420.928 215.251 424.065 216.507 425.947C217.761 427.828 220.242 437.607 224.005 437.607C227.769 437.607 245.358 414.972 247.24 410.581C249.121 406.19 251.316 403.368 251.631 400.232C251.944 397.096 249.749 355.701 249.749 355.701C249.749 355.701 246.613 314.934 246.613 313.993C246.613 313.052 245.677 305.682 245.677 305.682Z" fill="#999999" stroke="#263238" stroke-miterlimit="10"/>
<path d="M222.38 396.324C222.38 396.324 235.832 393.308 244.645 398.643" stroke="#263238" stroke-miterlimit="10" stroke-linecap="round" stroke-linejoin="round"/>
<path d="M237.818 388.76C240.266 388.504 242.663 388.422 244.646 388.67" stroke="#263238" stroke-miterlimit="10" stroke-linecap="round" stroke-linejoin="round"/>
<path d="M224.004 391.453C224.004 391.453 228.452 390.205 233.634 389.337" stroke="#263238" stroke-miterlimit="10" stroke-linecap="round" stroke-linejoin="round"/>
<path d="M243.117 332.33C241.789 328.108 240.694 324.7 240.492 324.298" stroke="#263238" stroke-miterlimit="10" stroke-linecap="round" stroke-linejoin="round"/>
<path d="M248.666 350.228C248.666 350.228 246.747 343.975 244.766 337.606" stroke="#263238" stroke-miterlimit="10" stroke-linecap="round" stroke-linejoin="round"/>
<path d="M358.276 393.724L358.576 367.671C358.576 367.671 367.317 306.031 365.519 304.533C363.723 303.036 334.019 291.009 331.324 290.41C328.629 289.812 285.505 292.806 285.505 292.806C285.505 292.806 257.656 297.896 245.676 305.683L251.367 371.864C251.367 371.864 252.265 396.72 252.564 400.612C252.864 404.505 250.468 414.387 250.169 420.676C249.87 426.966 255.259 434.451 255.859 435.35C256.458 436.249 301.078 435.35 301.078 435.35H357.377C357.377 435.35 360.671 418.879 359.772 408.997C358.875 399.115 358.276 393.724 358.276 393.724Z" fill="#999999" stroke="#263238" stroke-miterlimit="10"/>
<path d="M268.44 337.276C268.44 337.276 259.239 381.98 257.406 398.702C255.574 415.424 249.848 444.744 249.848 444.744L249.618 456.655L233.584 520.563H374.457C374.457 520.563 364.378 473.148 363.004 467.88C361.63 462.612 357.965 442.454 357.965 442.454C357.965 442.454 359.339 433.063 359.798 431.001C360.256 428.94 353.154 393.206 352.239 387.48C351.322 381.753 342.16 338.002 342.16 338.002L268.44 337.276Z" fill="#D7A86E" stroke="#263238" stroke-miterlimit="10"/>
<path d="M278.707 475.713C278.707 475.713 246.382 455.865 255.455 467.206" stroke="#263238" stroke-miterlimit="10"/>
<path d="M341.115 461.016C337.56 463.182 334.152 465.278 332.013 466.639" stroke="#263238" stroke-miterlimit="10"/>
<path d="M355.264 452.462C355.264 452.462 349.668 455.82 343.719 459.433" stroke="#263238" stroke-miterlimit="10"/>
<path d="M275.546 351.292L287.505 292.766L282.178 293.554L269.228 351.292H275.546Z" fill="#263238" stroke="#263238" stroke-miterlimit="10"/>
<path d="M340.656 351.292L336.234 291.78L331.324 290.409L334.431 351.292H340.656Z" fill="#263238" stroke="#263238" stroke-miterlimit="10"/>
<path d="M270.985 356.412L274.807 385.946H294.612L298.319 356.643L270.985 356.412Z" fill="#D7A86E" stroke="#263238" stroke-miterlimit="10"/>
<path d="M296.106 374.139L297.526 362.914H271.827L273.279 374.139H296.106Z" fill="white" stroke="#263238" stroke-miterlimit="10"/>
<path d="M299.535 354.326H269.769V357.222H299.535V354.326Z" fill="white" stroke="#263238" stroke-miterlimit="10" stroke-linecap="round" stroke-linejoin="round"/>
<path d="M297.508 350.736H271.795V354.326H297.508V350.736Z" fill="white" stroke="#263238" stroke-miterlimit="10" stroke-linecap="round" stroke-linejoin="round"/>
<path d="M307.546 356.412L311.368 385.946H331.174L334.88 356.643L307.546 356.412Z" fill="#D7A86E" stroke="#263238" stroke-miterlimit="10"/>
<path d="M332.666 374.139L334.086 362.914H308.387L309.84 374.139H332.666Z" fill="white" stroke="#263238" stroke-miterlimit="10"/>
<path d="M336.096 354.326H306.33V357.222H336.096V354.326Z" fill="white" stroke="#263238" stroke-miterlimit="10" stroke-linecap="round" stroke-linejoin="round"/>
<path d="M334.069 350.736H308.357V354.326H334.069V350.736Z" fill="white" stroke="#263238" stroke-miterlimit="10" stroke-linecap="round" stroke-linejoin="round"/>
<path d="M340.273 379.912H267.553V394.897H340.273V379.912Z" fill="white" stroke="#263238" stroke-miterlimit="10"/>
<path d="M290.933 282.098C290.933 282.098 283.331 287.3 282.93 289.9C282.531 292.501 273.727 315.908 277.929 316.108C282.13 316.309 288.931 311.307 288.931 311.307C288.931 311.307 291.532 314.108 294.733 314.509C297.935 314.91 308.137 314.308 308.137 314.308L304.737 319.71C304.737 319.71 309.939 317.709 313.339 316.108C316.74 314.508 315.54 314.708 318.341 312.108C321.142 309.507 323.343 306.506 325.143 307.306C326.943 308.107 328.144 315.709 330.345 316.71C332.545 317.71 334.546 311.708 334.546 303.506C334.546 295.304 333.745 288.302 327.544 283.9C321.342 279.499 318.341 280.299 318.341 280.299L290.933 282.098Z" fill="#999999" stroke="#263238" stroke-miterlimit="10"/>
<path d="M285.806 289.51C285.806 289.51 282.812 296.398 289.1 308.676" stroke="#263238" stroke-miterlimit="10"/>
<path d="M290.533 283.498C290.533 283.498 287.733 293.701 287.532 297.302C287.332 300.903 293.334 306.705 298.735 309.506C304.137 312.307 308.139 314.307 308.139 314.307C308.139 314.307 321.942 306.505 324.743 302.304C327.544 298.102 327.343 294.102 327.343 294.102L322.942 281.698L290.533 283.498Z" fill="white" stroke="#263238" stroke-miterlimit="10"/>
<path d="M312.417 406.116C312.417 406.116 308.727 405.008 306.881 401.44C305.035 397.873 303.437 392.461 303.437 391.722C303.437 390.984 305.283 390.368 306.267 391.107C307.251 391.845 312.417 406.116 312.417 406.116Z" fill="white" stroke="#263238" stroke-miterlimit="10"/>
<path d="M365.519 304.532C365.519 304.532 372.75 308.974 380.59 323.4C388.43 337.825 388.744 379.22 388.744 379.22C388.744 379.22 393.761 385.806 392.507 389.569C391.253 393.332 389.685 396.468 389.685 396.468C389.685 396.468 394.389 403.053 394.389 407.757C394.389 412.461 393.135 416.538 393.135 418.734C393.135 420.928 393.762 424.065 392.507 425.947C391.253 427.828 388.773 437.607 385.008 437.607C381.245 437.607 363.656 414.972 361.774 410.581C359.892 406.19 357.698 403.368 357.383 400.232C357.07 397.096 359.265 355.701 359.265 355.701C359.265 355.701 362.4 314.934 362.4 313.993C362.4 313.052 365.519 304.532 365.519 304.532Z" fill="#999999" stroke="#263238" stroke-miterlimit="10"/>
<path d="M381.102 395.587C376.389 395.254 369.569 395.493 364.366 398.643" stroke="#263238" stroke-miterlimit="10" stroke-linecap="round" stroke-linejoin="round"/>
<path d="M386.632 396.324C386.632 396.324 385.623 396.098 383.977 395.878" stroke="#263238" stroke-miterlimit="10" stroke-linecap="round" stroke-linejoin="round"/>
<path d="M385.008 391.453C385.008 391.453 371.788 387.742 364.367 388.67" stroke="#263238" stroke-miterlimit="10" stroke-linecap="round" stroke-linejoin="round"/>
<path d="M365.556 333.411C367.032 328.702 368.302 324.733 368.52 324.297" stroke="#263238" stroke-miterlimit="10" stroke-linecap="round" stroke-linejoin="round"/>
<path d="M360.347 350.228C360.347 350.228 362.117 344.461 364.013 338.361" stroke="#263238" stroke-miterlimit="10" stroke-linecap="round" stroke-linejoin="round"/>
<path d="M344.119 389.694C344.119 389.694 356.01 399.326 359.171 400.681C362.332 402.036 376.63 403.239 380.694 405.949C384.759 408.658 388.22 408.958 388.521 421.15C388.822 433.342 386.865 435.75 384.005 439.363C381.146 442.975 380.393 445.383 374.674 444.028C368.955 442.674 360.526 439.363 351.646 433.191C342.766 427.021 334.337 415.882 331.929 411.969C329.52 408.056 325.758 403.239 325.758 403.239L344.119 389.694Z" fill="white" stroke="#263238" stroke-miterlimit="10"/>
<path d="M330.993 405.132C330.993 405.132 327.549 408.453 325.333 408.453C323.119 408.453 314.262 407.346 312.417 406.116C310.571 404.886 306.143 393.814 305.651 392.707C305.159 391.599 306.267 390.861 307.865 390.493C309.465 390.124 310.571 391.969 312.048 394.429C313.524 396.889 315.246 398.98 315.246 398.98C315.246 398.98 320.044 404.886 322.012 404.27C323.981 403.654 330.993 405.132 330.993 405.132Z" fill="white" stroke="#263238" stroke-miterlimit="10"/>
<path d="M338.25 397.75C338.25 397.75 338.004 403.164 335.667 404.27C333.329 405.378 324.595 404.886 322.012 404.27C319.428 403.654 316.722 401.81 315.984 400.088C315.246 398.366 310.203 390.001 310.325 388.033C310.447 386.065 312.539 384.343 314.261 384.465C315.983 384.589 317.337 387.417 317.705 388.155C318.073 388.893 321.887 393.199 323.241 394.552C324.594 395.906 326.562 397.136 326.562 397.136C326.562 397.136 328.038 396.768 328.654 396.52C329.271 396.274 338.25 397.75 338.25 397.75Z" fill="white" stroke="#263238" stroke-miterlimit="10"/>
<path d="M347.107 382.496C347.107 382.496 345.139 387.417 344.77 390.615C344.401 393.813 344.032 395.905 342.064 397.258C340.096 398.612 334.806 400.21 332.345 399.596C329.885 398.98 322.75 392.707 321.274 390.001C319.798 387.295 319.428 383.973 321.274 382.989C323.119 382.005 325.579 383.604 326.809 385.203C328.039 386.803 330.993 389.878 331.361 390.001C331.729 390.124 333.083 390.247 333.083 390.247L335.913 381.636L338.931 381.268L347.107 382.496Z" fill="white" stroke="#263238" stroke-miterlimit="10"/>
<path d="M340.464 375.607C340.464 375.607 345.877 374.499 347.722 375.361C349.567 376.222 349.813 381.266 348.337 382.618C346.861 383.972 342.678 384.464 341.694 384.34C340.71 384.217 337.815 382.33 338.373 379.912C338.932 377.494 339.358 376.222 340.464 375.607Z" fill="white" stroke="#263238" stroke-miterlimit="10"/>
<path d="M333.084 390.247C333.084 390.247 337.758 386.679 339.85 389.631" stroke="#263238" stroke-miterlimit="10" stroke-linecap="round" stroke-linejoin="round"/>
<path d="M287.369 377.646L295.641 390.853C296.316 391.932 297.498 392.586 298.772 392.586H308.538C309.906 392.586 311.162 391.83 311.802 390.621L318.76 377.493L287.369 377.646Z" fill="white" stroke="#263238" stroke-miterlimit="10"/>
<path d="M339.132 377.494H266.996V381.267H339.132V377.494Z" fill="white" stroke="#263238" stroke-miterlimit="10"/>
<path d="M262.018 389.694C262.018 389.694 250.127 399.326 246.966 400.681C243.805 402.036 229.507 403.239 225.443 405.949C221.378 408.658 217.918 408.958 217.616 421.15C217.315 433.342 219.272 435.75 222.132 439.363C224.992 442.975 225.744 445.383 231.463 444.028C237.182 442.674 245.611 439.363 254.491 433.191C263.371 427.021 271.8 415.882 274.208 411.969C276.617 408.056 280.38 403.239 280.38 403.239L262.018 389.694Z" fill="white" stroke="#263238" stroke-miterlimit="10"/>
<path d="M293.511 406.116C293.511 406.116 297.201 405.008 299.046 401.44C300.892 397.873 302.49 392.461 302.49 391.722C302.49 390.984 300.645 390.368 299.661 391.107C298.677 391.845 293.511 406.116 293.511 406.116Z" fill="white" stroke="#263238" stroke-miterlimit="10"/>
<path d="M274.935 405.132C274.935 405.132 278.379 408.453 280.594 408.453C282.808 408.453 291.665 407.346 293.511 406.116C295.356 404.886 299.784 393.814 300.276 392.707C300.768 391.599 299.662 390.861 298.062 390.493C296.463 390.124 295.356 391.969 293.88 394.429C292.404 396.889 290.682 398.98 290.682 398.98C290.682 398.98 285.885 404.886 283.917 404.27C281.946 403.654 274.935 405.132 274.935 405.132Z" fill="white" stroke="#263238" stroke-miterlimit="10"/>
<path d="M267.677 397.75C267.677 397.75 267.923 403.164 270.261 404.27C272.598 405.378 281.332 404.886 283.916 404.27C286.499 403.654 289.205 401.81 289.943 400.088C290.681 398.366 295.725 390.001 295.602 388.033C295.479 386.065 293.388 384.343 291.666 384.465C289.944 384.589 288.591 387.417 288.222 388.155C287.854 388.893 284.039 393.199 282.687 394.552C281.333 395.906 279.365 397.136 279.365 397.136C279.365 397.136 277.889 396.768 277.274 396.52C276.657 396.274 267.677 397.75 267.677 397.75Z" fill="white" stroke="#263238" stroke-miterlimit="10"/>
<path d="M258.82 382.496C258.82 382.496 260.788 387.417 261.157 390.615C261.526 393.813 261.895 395.905 263.863 397.258C265.831 398.612 271.121 400.21 273.582 399.596C276.042 398.98 283.177 392.707 284.653 390.001C286.129 387.295 286.499 383.973 284.653 382.989C282.808 382.005 280.348 383.604 279.118 385.203C277.888 386.803 274.935 389.878 274.566 390.001C274.197 390.124 272.844 390.247 272.844 390.247L270.015 381.636L266.997 381.268L258.82 382.496Z" fill="white" stroke="#263238" stroke-miterlimit="10"/>
<path d="M265.463 375.607C265.463 375.607 260.05 374.499 258.205 375.361C256.36 376.222 256.114 381.266 257.591 382.618C259.067 383.972 263.25 384.464 264.234 384.34C265.218 384.217 268.114 382.33 267.556 379.912C266.995 377.494 266.569 376.222 265.463 375.607Z" fill="white" stroke="#263238" stroke-miterlimit="10"/>
<path d="M272.843 390.247C272.843 390.247 268.168 386.679 266.078 389.631" stroke="#263238" stroke-miterlimit="10" stroke-linecap="round" stroke-linejoin="round"/>
<path d="M279.258 241.792C279.258 241.792 276.603 240.133 276.437 245.443C276.272 250.753 276.437 262.203 279.258 265.19C282.08 268.177 283.739 265.522 283.739 265.522L282.252 245.661L279.258 241.792Z" fill="white" stroke="#263238" stroke-miterlimit="10"/>
<path d="M281.394 253.166C281.394 253.166 283.739 271.663 286.062 275.148C288.385 278.632 294.193 289.252 302.823 291.576C311.452 293.899 318.381 289.681 320.538 287.524C322.696 285.367 331.531 274.815 332.693 271.496C333.855 268.177 334.518 266.02 334.518 266.02C334.518 266.02 338.833 266.85 340.492 261.54C342.151 256.23 342.649 249.094 340.99 247.268C339.33 245.443 338.64 244.803 338.64 244.803L334.849 244.614L335.347 226.857C335.347 226.857 334.351 222.211 322.735 218.726C311.119 215.241 298.009 216.237 291.372 219.39C284.735 222.542 282.245 227.853 282.245 227.853L280.751 244.779C280.751 244.779 279.381 249.272 281.394 253.166Z" fill="white" stroke="#263238" stroke-miterlimit="10"/>
<path d="M327.921 215.001C327.921 215.001 330.922 212.214 328.349 206.64C325.776 201.066 323.847 199.993 323.418 201.494C322.99 202.995 322.775 205.568 322.775 205.568C322.775 205.568 318.701 198.064 309.696 199.994C300.691 201.924 298.762 204.283 298.762 204.283C298.762 204.283 284.611 204.283 279.036 214.574C273.461 224.865 274.319 234.3 277.107 241.161C279.894 248.022 279.251 249.738 279.679 251.882C280.108 254.026 280.751 254.67 281.394 253.168C282.037 251.667 281.179 249.952 282.252 245.664C283.324 241.376 285.04 240.09 285.04 236.872C285.04 233.655 284.611 223.579 297.261 220.792C309.911 218.005 321.917 219.721 324.49 222.507C327.063 225.295 328.564 233.228 330.065 237.087C331.566 240.946 332.638 242.876 333.066 245.449C333.495 248.022 333.495 251.024 333.495 251.024C333.495 251.024 335.209 250.809 335.853 248.88C336.496 246.95 337.997 244.806 338.64 244.806C339.283 244.806 339.069 236.229 339.712 232.798C340.355 229.368 341.641 218.862 336.711 216.075C331.78 213.286 327.921 215.001 327.921 215.001Z" fill="#263238" stroke="#263238" stroke-miterlimit="10"/>
<path d="M298.84 247.683C298.84 249.104 297.986 250.256 296.932 250.256C295.878 250.256 295.024 249.104 295.024 247.683C295.024 246.262 295.878 245.112 296.932 245.112C297.986 245.112 298.84 246.264 298.84 247.683Z" fill="#263238"/>
<path d="M320.993 247.683C320.993 249.104 320.139 250.256 319.085 250.256C318.032 250.256 317.177 249.104 317.177 247.683C317.177 246.262 318.032 245.112 319.085 245.112C320.139 245.112 320.993 246.264 320.993 247.683Z" fill="#263238"/>
<path d="M286.726 244.946C286.726 244.946 287.224 241.296 290.709 239.636C294.194 237.976 302.988 237.313 302.988 237.313L303.154 239.802C303.154 239.802 294.194 240.134 291.704 241.461C289.215 242.788 286.726 244.946 286.726 244.946Z" fill="#263238"/>
<path d="M329.705 244.946C329.705 244.946 329.207 241.296 325.722 239.636C322.237 237.976 313.442 237.313 313.442 237.313L313.277 239.802C313.277 239.802 322.237 240.134 324.727 241.461C327.216 242.788 329.705 244.946 329.705 244.946Z" fill="#263238"/>
<path d="M301.827 258.222C301.827 258.222 305.311 261.541 308.464 261.706C311.617 261.872 314.604 258.222 314.604 258.222" stroke="#263238" stroke-miterlimit="10"/>
<path d="M297.015 267.182L320.745 267.348C320.745 267.348 315.6 274.65 308.133 274.981C300.665 275.313 297.015 267.182 297.015 267.182Z" stroke="#263238" stroke-miterlimit="10" stroke-linecap="round" stroke-linejoin="round"/>
<path d="M10.2446 520.562H581.235" stroke="#263238" stroke-miterlimit="10"/>
</svg>
