<svg width="24" height="24" viewBox="0 0 24 24" fill="none" xmlns="http://www.w3.org/2000/svg">
<path d="M20.625 16.5H3.375C2.325 16.5 1.5 15.675 1.5 14.625V14.25C1.5 12.075 2.925 10.2 5.025 9.59999C9.6 8.24999 14.475 8.24999 19.05 9.59999C21.075 10.2 22.575 12.15 22.575 14.25V14.625C22.5 15.675 21.675 16.5 20.625 16.5ZM12 9.29999C9.75 9.29999 7.425 9.59999 5.175 10.275C3.45 10.8 2.25 12.45 2.25 14.25V14.625C2.25 15.225 2.775 15.75 3.375 15.75H20.625C21.225 15.75 21.75 15.225 21.75 14.625V14.25C21.75 12.45 20.55 10.8 18.825 10.275C16.575 9.59999 14.25 9.29999 12 9.29999Z" fill="#4E342E"/>
<path d="M20.6252 15H3.3752C2.5502 15 1.8002 14.4 1.5752 13.65V13.5C1.8752 11.625 3.2252 10.125 5.0252 9.59999C9.60019 8.24999 14.4752 8.24999 19.0502 9.59999C20.8502 10.125 22.2002 11.625 22.5002 13.5V13.65C22.2002 14.4 21.4502 15 20.6252 15ZM2.3252 13.5C2.4752 13.95 2.9252 14.25 3.3752 14.25H20.6252C21.0752 14.25 21.5252 13.95 21.6752 13.5C21.3752 12 20.2502 10.725 18.8252 10.275C14.4002 8.92499 9.6752 8.92499 5.2502 10.275C3.7502 10.725 2.6252 12 2.3252 13.5Z" fill="#4E342E"/>
<path d="M7.8751 12.6C7.8001 12.6 7.6501 12.525 7.5751 12.45C6.7501 11.475 5.5501 10.8 4.2751 10.575C4.1251 10.575 3.9751 10.425 3.9751 10.275C3.9751 10.125 4.0501 9.975 4.2001 9.9C4.5001 9.75 4.8001 9.6 5.0251 9.525C5.2501 9.45 5.5501 9.375 5.7751 9.3H6.2251C7.3501 9.825 8.1001 10.95 8.1751 12.225C8.1751 12.375 8.1001 12.525 7.9501 12.6H7.8751ZM5.5501 10.2C6.1501 10.425 6.6751 10.725 7.1251 11.1C6.9001 10.65 6.5251 10.35 6.0751 10.05H5.9251C5.8501 10.125 5.7001 10.125 5.5501 10.2ZM17.5501 12.9C17.4001 12.9 17.2501 12.825 17.1751 12.675C16.6501 11.25 15.6001 10.125 14.2501 9.375C14.1001 9.3 14.0251 9.075 14.1001 8.925C14.1751 8.775 14.3251 8.625 14.4751 8.625C15.3751 8.7 16.2001 8.85 16.9501 9C17.0251 9 17.1001 9.075 17.1751 9.15C17.7001 9.9 17.9251 10.8 17.9251 11.7C17.9251 11.925 17.9251 12.225 17.8501 12.525C17.8501 12.75 17.7001 12.9 17.5501 12.9ZM15.9001 9.6C16.3501 9.975 16.8001 10.5 17.1001 11.025C17.0251 10.575 16.8751 10.125 16.6501 9.75C16.4251 9.75 16.2001 9.675 15.9001 9.6ZM13.1251 12.75C12.9751 12.75 12.8251 12.675 12.7501 12.6C12.5251 12.225 12.2251 11.85 11.9251 11.55C11.1001 10.65 9.9751 9.975 8.7751 9.525C8.6251 9.45 8.4751 9.3 8.5501 9.15C8.5501 9 8.7001 8.85 8.8501 8.85C9.8251 8.7 10.7251 8.7 11.6251 8.625C11.7001 8.625 11.8501 8.625 11.8501 8.7C12.7501 9.525 13.3501 11.025 13.3501 12.45C13.5001 12.6 13.3501 12.75 13.1251 12.75ZM10.4251 9.375C11.2501 9.825 11.9251 10.35 12.5251 11.025C12.3001 10.35 12.0001 9.75 11.5501 9.3C11.1751 9.3 10.8001 9.3 10.4251 9.375Z" fill="#4E342E"/>
</svg>
