<svg width="24" height="24" viewBox="0 0 24 24" fill="none" xmlns="http://www.w3.org/2000/svg">
<g clip-path="url(#clip0_122_432)">
<path d="M13.9998 6.35001C14.1011 6.35199 14.2006 6.32378 14.2858 6.26896C14.371 6.21414 14.4379 6.1352 14.478 6.0422C14.5182 5.94921 14.5297 5.84636 14.5112 5.74678C14.4926 5.6472 14.4449 5.5554 14.374 5.48307C14.3031 5.41074 14.2122 5.36117 14.113 5.34066C14.0138 5.32016 13.9108 5.32966 13.817 5.36795C13.7232 5.40624 13.643 5.47158 13.5865 5.55565C13.53 5.63973 13.4998 5.73872 13.4998 5.84001C13.4985 5.90651 13.5104 5.9726 13.5349 6.03442C13.5595 6.09624 13.5961 6.15255 13.6427 6.20004C13.6892 6.24754 13.7448 6.28526 13.8061 6.31101C13.8674 6.33676 13.9333 6.35002 13.9998 6.35001ZM11.8598 2.82001C11.9611 2.82199 12.0606 2.79378 12.1458 2.73896C12.231 2.68414 12.2979 2.6052 12.338 2.5122C12.3782 2.41921 12.3897 2.31636 12.3712 2.21678C12.3526 2.1172 12.3049 2.0254 12.234 1.95307C12.1631 1.88074 12.0722 1.83116 11.973 1.81066C11.8738 1.79016 11.7708 1.79966 11.677 1.83795C11.5832 1.87624 11.503 1.94158 11.4465 2.02565C11.39 2.10973 11.3598 2.20872 11.3598 2.31001C11.3585 2.3765 11.3704 2.4426 11.3949 2.50442C11.4195 2.56624 11.4561 2.62255 11.5027 2.67004C11.5492 2.71754 11.6048 2.75526 11.6661 2.78101C11.7274 2.80676 11.7933 2.82002 11.8598 2.82001ZM14.9998 4.33001C15.1011 4.33199 15.2006 4.30378 15.2858 4.24896C15.371 4.19414 15.4379 4.1152 15.478 4.0222C15.5182 3.92921 15.5297 3.82636 15.5112 3.72678C15.4926 3.6272 15.4449 3.5354 15.374 3.46307C15.3031 3.39074 15.2122 3.34116 15.113 3.32066C15.0138 3.30016 14.9108 3.30966 14.817 3.34795C14.7232 3.38624 14.643 3.45158 14.5865 3.53565C14.53 3.61973 14.4998 3.71872 14.4998 3.82001C14.4985 3.8865 14.5104 3.9526 14.5349 4.01442C14.5595 4.07624 14.5961 4.13255 14.6427 4.18004C14.6892 4.22754 14.7448 4.26526 14.8061 4.29101C14.8674 4.31676 14.9333 4.33002 14.9998 4.33001ZM16.3498 6.86001C16.4511 6.86199 16.5506 6.83378 16.6358 6.77896C16.721 6.72414 16.7879 6.6452 16.828 6.5522C16.8682 6.45921 16.8797 6.35636 16.8612 6.25678C16.8426 6.1572 16.7949 6.0654 16.724 5.99307C16.6531 5.92074 16.5622 5.87116 16.463 5.85066C16.3638 5.83016 16.2608 5.83966 16.167 5.87795C16.0732 5.91624 15.993 5.98158 15.9365 6.06565C15.88 6.14973 15.8498 6.24872 15.8498 6.35001C15.8484 6.41735 15.8607 6.48428 15.8858 6.54677C15.911 6.60927 15.9485 6.66603 15.9961 6.71366C16.0438 6.76129 16.1005 6.79881 16.163 6.82396C16.2255 6.84911 16.2924 6.86137 16.3598 6.86001H16.3498ZM11.8498 4.33001C11.8518 4.42845 11.8827 4.52412 11.9389 4.60501C11.995 4.68591 12.0738 4.74844 12.1653 4.78476C12.2568 4.82107 12.357 4.82956 12.4533 4.80915C12.5496 4.78874 12.6378 4.74035 12.7067 4.67004C12.7757 4.59973 12.8223 4.51064 12.8408 4.41393C12.8593 4.31722 12.8488 4.21721 12.8107 4.12643C12.7726 4.03565 12.7085 3.95814 12.6265 3.90363C12.5445 3.84912 12.4482 3.82003 12.3498 3.82001C12.2841 3.82131 12.2194 3.83553 12.1592 3.86187C12.099 3.8882 12.0446 3.92614 11.9991 3.9735C11.9536 4.02086 11.9179 4.07672 11.894 4.13789C11.8701 4.19906 11.8585 4.26434 11.8598 4.33001H11.8498ZM11.2398 6.86001C11.3411 6.86199 11.4406 6.83378 11.5258 6.77896C11.611 6.72414 11.6779 6.6452 11.718 6.5522C11.7582 6.45921 11.7697 6.35636 11.7512 6.25678C11.7326 6.1572 11.6849 6.0654 11.614 5.99307C11.5431 5.92074 11.4522 5.87116 11.353 5.85066C11.2538 5.83016 11.1508 5.83966 11.057 5.87795C10.9632 5.91624 10.883 5.98158 10.8265 6.06565C10.77 6.14973 10.7398 6.24872 10.7398 6.35001C10.7384 6.41735 10.7507 6.48428 10.7758 6.54677C10.801 6.60927 10.8385 6.66603 10.8861 6.71366C10.9338 6.76129 10.9905 6.79881 11.053 6.82396C11.1155 6.84911 11.1824 6.86137 11.2498 6.86001H11.2398ZM8.73979 6.86001C8.84106 6.86199 8.94063 6.83378 9.0258 6.77896C9.11098 6.72414 9.1779 6.6452 9.21804 6.5522C9.25818 6.45921 9.26971 6.35636 9.25118 6.25678C9.23264 6.1572 9.18488 6.0654 9.11397 5.99307C9.04306 5.92074 8.95221 5.87116 8.85302 5.85066C8.75383 5.83016 8.65078 5.83966 8.557 5.87795C8.46323 5.91624 8.38298 5.98158 8.32648 6.06565C8.26999 6.14973 8.23981 6.24872 8.23979 6.35001C8.23843 6.41735 8.25069 6.48428 8.27584 6.54677C8.30099 6.60927 8.3385 6.66603 8.38613 6.71366C8.43377 6.76129 8.49053 6.79881 8.55302 6.82396C8.61551 6.84911 8.68244 6.86137 8.74979 6.86001H8.73979ZM19.4998 8.27001C19.6485 7.99019 19.7563 7.69046 19.8198 7.38001C19.8773 7.11266 19.8749 6.83589 19.8126 6.5696C19.7504 6.30331 19.6299 6.05414 19.4598 5.84001C19.2269 5.59502 18.9483 5.39798 18.6398 5.26001C18.3798 5.13001 18.1598 5.01001 18.0898 4.85001C18.0198 4.69001 18.0898 4.51001 18.2398 4.21001C18.41 3.95238 18.4922 3.6466 18.4742 3.33838C18.4561 3.03015 18.3388 2.73604 18.1398 2.50001C17.9587 2.32896 17.7449 2.19644 17.5111 2.1105C17.2773 2.02455 17.0285 1.98696 16.7798 2.00001C16.3598 2.00001 16.1398 2.00001 15.9798 1.75001L15.7698 1.46001C15.6073 1.16131 15.3652 0.913475 15.0704 0.744014C14.7757 0.574553 14.4397 0.490092 14.0998 0.500007H13.6998C13.3298 0.533294 12.9571 0.482001 12.6098 0.350007C11.2098 -0.369993 10.7498 0.0900072 10.0998 1.25001C9.88399 1.63517 9.52445 1.91921 9.09979 2.04001L8.77979 2.11001C8.44306 2.1136 8.1148 2.21597 7.83571 2.40439C7.55662 2.59282 7.33899 2.85903 7.20979 3.17001C7.12111 3.43793 7.0739 3.71782 7.06979 4.00001C7.09418 4.25355 7.03062 4.50777 6.88979 4.72001C6.71979 5.00001 6.33979 5.00001 5.87979 5.00001C4.33979 5.10001 4.14979 6.09001 4.16979 6.68001C4.21355 7.16839 4.33157 7.64723 4.51979 8.10001V8.22001C4.35293 8.36304 4.21977 8.54122 4.12987 8.74177C4.03997 8.94232 3.99555 9.16027 3.99979 9.38001V10.38C4.00041 10.7059 4.10713 11.0226 4.30378 11.2824C4.50044 11.5422 4.77635 11.7309 5.08979 11.82L7.82979 22.82C7.90222 23.1518 8.08508 23.4492 8.34848 23.6635C8.61188 23.8779 8.94021 23.9965 9.27979 24H14.7098C15.0456 24.0009 15.3721 23.889 15.6368 23.6823C15.9015 23.4756 16.0892 23.186 16.1698 22.86L18.9098 11.86C19.2265 11.77 19.5049 11.5783 19.7019 11.3145C19.8988 11.0506 20.0035 10.7293 19.9998 10.4V9.40001C20.0021 9.18685 19.9587 8.97567 19.8725 8.78073C19.7862 8.58579 19.6591 8.41163 19.4998 8.27001ZM5.99979 6.00001C6.58034 6.03731 7.15203 5.84315 7.58979 5.46001C7.91336 5.08215 8.0845 4.59726 8.06979 4.10001C8.06883 3.90714 8.09578 3.71516 8.14979 3.53001C8.26979 3.22001 8.41979 3.18001 8.92979 3.08001L9.27979 3.00001C9.63744 2.91885 9.97463 2.76515 10.2705 2.54842C10.5663 2.33169 10.8146 2.05654 10.9998 1.74001C11.4898 0.880007 11.4898 0.880007 12.1798 1.24001C12.6671 1.45337 13.1996 1.5427 13.7298 1.50001H14.0998C14.5898 1.50001 14.6798 1.64001 14.9798 2.07001L15.2098 2.39001C15.3998 2.60094 15.6356 2.76558 15.899 2.87132C16.1625 2.97705 16.4467 3.02107 16.7298 3.00001C17.0698 3.00001 17.2798 3.00001 17.4098 3.16001C17.5398 3.32001 17.5098 3.32001 17.3098 3.78001C17.187 3.99308 17.1101 4.22953 17.0843 4.47411C17.0585 4.71869 17.0842 4.96597 17.1598 5.20001C17.3725 5.614 17.7276 5.93718 18.1598 6.11001C18.3522 6.19554 18.5281 6.31399 18.6798 6.46001C18.7521 6.56167 18.802 6.67754 18.8261 6.79995C18.8503 6.92236 18.8481 7.0485 18.8198 7.17001C18.7676 7.41155 18.68 7.64406 18.5598 7.86001H5.48979V7.75001C5.33936 7.3927 5.24167 7.01542 5.19979 6.63001C5.14979 6.31001 5.19979 6.05001 5.99979 6.00001ZM15.1998 22.62C15.1728 22.7292 15.1097 22.8262 15.0208 22.8951C14.9319 22.9641 14.8223 23.001 14.7098 23H9.27979C9.16727 23.001 9.05769 22.9641 8.96877 22.8951C8.87985 22.8262 8.81679 22.7292 8.78979 22.62L6.13979 11.9H17.8598L15.1998 22.62ZM18.9998 10.4C18.9998 10.5326 18.9471 10.6598 18.8533 10.7536C18.7596 10.8473 18.6324 10.9 18.4998 10.9H5.49979C5.36718 10.9 5.24 10.8473 5.14624 10.7536C5.05247 10.6598 4.99979 10.5326 4.99979 10.4V9.40001C4.99979 9.2674 5.05247 9.14022 5.14624 9.04645C5.24 8.95269 5.36718 8.90001 5.49979 8.90001H18.4998C18.6324 8.90001 18.7596 8.95269 18.8533 9.04645C18.9471 9.14022 18.9998 9.2674 18.9998 9.40001V10.4ZM9.48979 4.84001C9.59141 4.844 9.69191 4.81751 9.77837 4.76395C9.86483 4.71039 9.9333 4.6322 9.97498 4.53943C10.0167 4.44666 10.0297 4.34355 10.0123 4.24334C9.99494 4.14313 9.94802 4.0504 9.87755 3.97706C9.80709 3.90372 9.71631 3.85312 9.61687 3.83177C9.51744 3.81041 9.41389 3.81928 9.31952 3.85722C9.22516 3.89516 9.1443 3.96045 9.08733 4.0447C9.03035 4.12895 8.99987 4.2283 8.99979 4.33001C8.99846 4.39567 9.01009 4.46095 9.034 4.52213C9.0579 4.5833 9.09363 4.63916 9.13914 4.68652C9.18464 4.73388 9.23903 4.77181 9.29919 4.79815C9.35936 4.82448 9.42412 4.83871 9.48979 4.84001Z" fill="#4E342E"/>
</g>
<defs>
<clipPath id="clip0_122_432">
<rect width="24" height="24" fill="white"/>
</clipPath>
</defs>
</svg>
