<svg width="24" height="24" viewBox="0 0 24 24" fill="none" xmlns="http://www.w3.org/2000/svg">
<g clip-path="url(#clip0_122_428)">
<path d="M14.8 4.5C14.8 4.63261 14.8527 4.75979 14.9464 4.85355C15.0402 4.94732 15.1674 5 15.3 5C15.4326 5 15.5598 4.94732 15.6536 4.85355C15.7473 4.75979 15.8 4.63261 15.8 4.5C15.7947 4.35243 15.8407 4.20758 15.93 4.09C16.1108 3.8176 16.2049 3.49689 16.2 3.17C16.2049 2.84311 16.1108 2.5224 15.93 2.25C15.8407 2.13242 15.7947 1.98757 15.8 1.84C15.7947 1.69243 15.8407 1.54758 15.93 1.43C16.1127 1.15478 16.2069 0.830278 16.2 0.5C16.2 0.367392 16.1473 0.240215 16.0536 0.146447C15.9598 0.0526784 15.8326 0 15.7 0C15.5674 0 15.4402 0.0526784 15.3464 0.146447C15.2527 0.240215 15.2 0.367392 15.2 0.5C15.2053 0.647572 15.1593 0.792423 15.07 0.91C14.8892 1.1824 14.7951 1.50311 14.8 1.83C14.7951 2.15689 14.8892 2.4776 15.07 2.75C15.1593 2.86758 15.2053 3.01243 15.2 3.16C15.2053 3.30757 15.1593 3.45242 15.07 3.57C14.8873 3.84522 14.7931 4.16972 14.8 4.5ZM11.8 4.5C11.8 4.63261 11.8527 4.75979 11.9464 4.85355C12.0402 4.94732 12.1674 5 12.3 5C12.4326 5 12.5598 4.94732 12.6536 4.85355C12.7473 4.75979 12.8 4.63261 12.8 4.5C12.7947 4.35243 12.8407 4.20758 12.93 4.09C13.1108 3.8176 13.2049 3.49689 13.2 3.17C13.2049 2.84311 13.1108 2.5224 12.93 2.25C12.8407 2.13242 12.7947 1.98757 12.8 1.84C12.7947 1.69243 12.8407 1.54758 12.93 1.43C13.1127 1.15478 13.2069 0.830278 13.2 0.5C13.2 0.367392 13.1473 0.240215 13.0536 0.146447C12.9598 0.0526784 12.8326 0 12.7 0C12.5674 0 12.4402 0.0526784 12.3464 0.146447C12.2527 0.240215 12.2 0.367392 12.2 0.5C12.2053 0.647572 12.1593 0.792423 12.07 0.91C11.8892 1.1824 11.7951 1.50311 11.8 1.83C11.7951 2.15689 11.8892 2.4776 12.07 2.75C12.1593 2.86758 12.2053 3.01243 12.2 3.16C12.2053 3.30757 12.1593 3.45242 12.07 3.57C11.8873 3.84522 11.7931 4.16972 11.8 4.5ZM8.8 4.5C8.8 4.63261 8.85268 4.75979 8.94645 4.85355C9.04021 4.94732 9.16739 5 9.3 5C9.43261 5 9.55978 4.94732 9.65355 4.85355C9.74732 4.75979 9.8 4.63261 9.8 4.5C9.79474 4.35243 9.84067 4.20758 9.93 4.09C10.1108 3.8176 10.2049 3.49689 10.2 3.17C10.2049 2.84311 10.1108 2.5224 9.93 2.25C9.84067 2.13242 9.79474 1.98757 9.8 1.84C9.79474 1.69243 9.84067 1.54758 9.93 1.43C10.1127 1.15478 10.2069 0.830278 10.2 0.5C10.2 0.367392 10.1473 0.240215 10.0536 0.146447C9.95979 0.0526784 9.83261 0 9.7 0C9.56739 0 9.44022 0.0526784 9.34645 0.146447C9.25268 0.240215 9.2 0.367392 9.2 0.5C9.20526 0.647572 9.15933 0.792423 9.07 0.91C8.88923 1.1824 8.79511 1.50311 8.8 1.83C8.79511 2.15689 8.88923 2.4776 9.07 2.75C9.15933 2.86758 9.20526 3.01243 9.2 3.16C9.20526 3.30757 9.15933 3.45242 9.07 3.57C8.88728 3.84522 8.79307 4.16972 8.8 4.5ZM23.5 19H17.5C18.0121 18.5802 18.475 18.1039 18.88 17.58C19.9537 17.2176 20.9292 16.6118 21.73 15.81C22.4301 15.1147 22.985 14.2872 23.3627 13.3757C23.7404 12.4642 23.9332 11.4867 23.93 10.5C23.93 10.1039 23.7733 9.72388 23.4942 9.44286C23.2151 9.16184 22.8361 9.00264 22.44 9H20.9L21 7.54C21.0055 7.47105 20.9967 7.40171 20.9741 7.33635C20.9514 7.271 20.9155 7.21105 20.8685 7.16029C20.8215 7.10954 20.7645 7.06909 20.7011 7.0415C20.6376 7.01391 20.5692 6.99978 20.5 7H3.5C3.43174 6.99988 3.36417 7.01373 3.30147 7.04072C3.23876 7.0677 3.18225 7.10723 3.1354 7.15689C3.08856 7.20654 3.05238 7.26526 3.02909 7.32943C3.0058 7.3936 2.9959 7.46186 3 7.53L3.38 13.07C3.47509 14.2173 3.80036 15.3337 4.33642 16.3526C4.87247 17.3714 5.6083 18.2718 6.5 19H0.5C0.367392 19 0.240215 19.0527 0.146447 19.1464C0.0526784 19.2402 0 19.3674 0 19.5C0 20.6935 0.474106 21.8381 1.31802 22.682C2.16193 23.5259 3.30653 24 4.5 24H19.5C20.6935 24 21.8381 23.5259 22.682 22.682C23.5259 21.8381 24 20.6935 24 19.5C24 19.3674 23.9473 19.2402 23.8536 19.1464C23.7598 19.0527 23.6326 19 23.5 19ZM20.62 13.06L20.83 10H22.44C22.5726 10 22.6998 10.0527 22.7936 10.1464C22.8873 10.2402 22.94 10.3674 22.94 10.5C22.939 11.6211 22.6485 12.7229 22.0966 13.6987C21.5447 14.6746 20.7502 15.4914 19.79 16.07C20.2459 15.1249 20.5271 14.1052 20.62 13.06ZM4.38 13L4 8H20L19.66 13C19.5628 14.2413 19.1593 15.4391 18.4857 16.4862C17.8121 17.5333 16.8893 18.397 15.8 19H8.24C7.15358 18.3935 6.23315 17.5289 5.55997 16.4825C4.88678 15.4361 4.48154 14.2401 4.38 13ZM19.5 23H4.5C3.65278 23.0066 2.83177 22.7065 2.18849 22.1551C1.54521 21.6037 1.12308 20.8383 1 20H23C22.8769 20.8383 22.4548 21.6037 21.8115 22.1551C21.1682 22.7065 20.3472 23.0066 19.5 23Z" fill="#4E342E"/>
</g>
<defs>
<clipPath id="clip0_122_428">
<rect width="24" height="24" fill="white"/>
</clipPath>
</defs>
</svg>
