<svg width="24" height="24" viewBox="0 0 24 24" fill="none" xmlns="http://www.w3.org/2000/svg">
<g clip-path="url(#clip0_122_434)">
<path d="M20.9998 3.99999H16.8498L12.4998 2.48999V1.48999C12.4998 1.09217 12.3418 0.710635 12.0605 0.42933C11.7792 0.148025 11.3976 -0.0100098 10.9998 -0.0100098C10.602 -0.0100098 10.2205 0.148025 9.93915 0.42933C9.65785 0.710635 9.49981 1.09217 9.49981 1.48999V2.48999L5.10981 3.99999H1.99981C1.90195 4.00136 1.80664 4.03143 1.72571 4.08646C1.64477 4.14149 1.58176 4.21906 1.5445 4.30957C1.50723 4.40007 1.49735 4.49951 1.51607 4.59558C1.53479 4.69165 1.58129 4.7801 1.64981 4.84999L5.54981 8.74999L6.32981 11.86C6.39144 12.1439 6.53523 12.4033 6.74329 12.606C6.95134 12.8087 7.21444 12.9458 7.49981 13V15C7.22089 15.0505 6.96234 15.1801 6.75493 15.3734C6.54752 15.5666 6.39997 15.8153 6.32981 16.09L4.82981 22.09C4.76624 22.3137 4.75556 22.5492 4.79862 22.7777C4.84169 23.0063 4.93732 23.2217 5.07796 23.407C5.2186 23.5923 5.40039 23.7423 5.60898 23.8452C5.81756 23.9481 6.04722 24.0011 6.27981 24H15.7198C15.9478 24.0006 16.1728 23.9492 16.378 23.8498C16.5831 23.7503 16.7628 23.6055 16.9036 23.4262C17.0443 23.2469 17.1423 23.0378 17.1902 22.815C17.2381 22.5921 17.2345 22.3613 17.1798 22.14L15.6798 16.14C15.6175 15.8548 15.4722 15.5944 15.2622 15.3915C15.0523 15.1887 14.787 15.0524 14.4998 15V13C14.7787 12.9494 15.0373 12.8198 15.2447 12.6266C15.4521 12.4334 15.5997 12.1846 15.6698 11.91L16.8898 6.99999H19.4998V11H17.9998C17.9148 10.9998 17.8312 11.0213 17.7569 11.0624C17.6825 11.1035 17.6198 11.1629 17.5748 11.235C17.5298 11.307 17.5038 11.3894 17.4995 11.4743C17.4951 11.5591 17.5124 11.6437 17.5498 11.72L18.2698 13.17C18.3932 13.4198 18.5842 13.63 18.8211 13.7767C19.0579 13.9234 19.3312 14.0008 19.6098 14H20.9998C21.3976 14 21.7792 13.842 22.0605 13.5607C22.3418 13.2793 22.4998 12.8978 22.4998 12.5V5.49999C22.4998 5.10217 22.3418 4.72063 22.0605 4.43933C21.7792 4.15803 21.3976 3.99999 20.9998 3.99999ZM3.20981 4.99999H4.60981L5.07981 6.86999L3.20981 4.99999ZM10.4998 1.49999C10.4998 1.36738 10.5525 1.24021 10.6463 1.14644C10.74 1.05267 10.8672 0.99999 10.9998 0.99999C11.1324 0.99999 11.2596 1.05267 11.3534 1.14644C11.4471 1.24021 11.4998 1.36738 11.4998 1.49999V2.13999C11.1762 2.02641 10.8235 2.02641 10.4998 2.13999V1.49999ZM10.1798 3.30999L10.8198 3.08999C10.9268 3.05342 11.0429 3.05342 11.1498 3.08999L11.7898 3.30999L15.2398 4.50999L13.9098 4.99999H8.08981L6.73981 4.50999L10.1798 3.30999ZM13.4198 5.99999L12.5598 12H11.4998V5.99999H13.4198ZM10.4998 5.99999V12H9.42981L8.57981 5.99999H10.4998ZM7.29981 11.62L6.47981 8.37999L5.67981 5.19999L7.53981 5.86999L8.41981 12H7.77981C7.66901 11.9988 7.56174 11.9608 7.47486 11.892C7.38797 11.8233 7.3264 11.7276 7.29981 11.62ZM7.55981 23H6.27981C6.20355 23.0007 6.12814 22.9839 6.05935 22.951C5.99055 22.9181 5.9302 22.8699 5.88292 22.81C5.83563 22.7502 5.80265 22.6803 5.78651 22.6058C5.77038 22.5313 5.77151 22.454 5.78981 22.38L7.28981 16.38C7.31681 16.2708 7.37987 16.1738 7.46879 16.1049C7.55771 16.0359 7.66729 15.999 7.77981 16H8.42981L7.55981 23ZM10.4998 23H8.56981L9.44981 16H10.4998V23ZM11.4998 23V16H12.5598L13.4398 23H11.4998ZM13.4998 15H8.49981V13H13.4998V15ZM14.6998 16.38L16.1998 22.38C16.2181 22.454 16.2192 22.5313 16.2031 22.6058C16.187 22.6803 16.154 22.7502 16.1067 22.81C16.0594 22.8699 15.9991 22.9181 15.9303 22.951C15.8615 22.9839 15.7861 23.0007 15.7098 23H14.4398L13.5698 16H14.2198C14.3306 16.0012 14.4379 16.0392 14.5248 16.1079C14.6117 16.1767 14.6732 16.2724 14.6998 16.38ZM14.6998 11.62C14.6728 11.7292 14.6098 11.8262 14.5208 11.8951C14.4319 11.9641 14.3223 12.001 14.2098 12H13.5698L14.4498 5.86999L16.3098 5.19999L14.6998 11.62ZM21.4998 12.5C21.4998 12.6326 21.4471 12.7598 21.3534 12.8535C21.2596 12.9473 21.1324 13 20.9998 13H19.6198C19.5261 13.0002 19.4342 12.974 19.3547 12.9245C19.2751 12.875 19.211 12.8041 19.1698 12.72L18.8098 12H19.9998C20.1324 12 20.2596 11.9473 20.3534 11.8535C20.4471 11.7598 20.4998 11.6326 20.4998 11.5V6.49999C20.4998 6.36738 20.4471 6.2402 20.3534 6.14644C20.2596 6.05267 20.1324 5.99999 19.9998 5.99999H17.1398L17.3898 4.99999H20.9998C21.1324 4.99999 21.2596 5.05267 21.3534 5.14644C21.4471 5.2402 21.4998 5.36738 21.4998 5.49999V12.5Z" fill="#4E342E"/>
</g>
<defs>
<clipPath id="clip0_122_434">
<rect width="24" height="24" fill="white"/>
</clipPath>
</defs>
</svg>
